<svg xmlns="http://www.w3.org/2000/svg"
	width="1618px" height="1000px"
	viewBox="809 500 1618 1000"
	xmlns:xlink="http://www.w3.org/1999/xlink">
<defs><style type="text/css"><![CDATA[
polyline { stroke:#000000; fill:none; stroke-width: 1 }
]]></style></defs>
<polyline points="1809,500 2427,500 1808,500 1808,1500 2427,1500 809,1500 1809,500 809,500 809,1500"/>
<polyline points="1979,1221 1979,1224 1981,1224 1976,1224 1979,1221 1981,1221 1976,1221 1976,1229 1989,1229 1954,1229 1976,1208 1989,1208 1954,1208 1954,1263 2045,1263 1808,1263 1954,1118 2045,1118 1808,1118 1808,1500 1808,1263 1808,1118 1954,1118 1954,1263 1954,1229 1954,1208 1976,1208 1976,1229 1976,1224 1976,1221 1979,1221 1981,1223"/>
<polyline points="1808,1263 2045,1500 1808,1500"/>
<polyline points="1976,1224 1981,1229 1976,1229"/>
<polyline points="1976,1208 1989,1221 1976,1221"/>
<polyline points="1808,500 2427,1118 1808,1118"/>
<polyline points="1954,1118 2045,1208 1954,1208"/>
<polyline points="1954,1229 1989,1263 1954,1263"/>
<polyline points="1981,1221 1981,1224 1981,1223 1981,1221 1981,1229 1989,1221 1989,1208 1989,1263 2045,1208 2045,1118 2045,1500 2427,1118"/>
<polyline points="1989,1263 2045,1263 2045,1208"/>
<polyline points="1989,1208 1989,1229 1981,1229"/>
<polyline points="2427,1500 2427,1118 2427,500 2427,1500 2045,1500"/>
<polyline points="2045,1118 2045,1263"/>
<polyline points="1989,1221 1989,1229"/>
</svg>
