<svg xmlns="http://www.w3.org/2000/svg"
	width="1325px" height="1000px"
	viewBox="662 500 1325 1000"
	xmlns:xlink="http://www.w3.org/1999/xlink">
<defs><style type="text/css"><![CDATA[
polyline { stroke:#000000; fill:none; stroke-width: 1 }
]]></style></defs>
<polyline points="662,501 664,501 664,502 664,506 666,506 662,506 664,506 664,504 662,504 662,506 662,514 662,500 664,500 664,502 662,502 662,506 662,500 662,502 662,501 662,500 662,1500 662,1394 802,1394 802,1254 802,1314 802,1280 802,1265 802,1254 802,1280 847,1280"/>
<polyline points="666,526 666,534 666,530 664,530 664,534 666,534 662,534 664,534 664,532 662,532 662,534 662,530 666,530 666,526 673,526 662,526 662,534 662,580 662,500 666,500 666,506 666,514 673,514 662,514 666,514 664,514 664,513 662,513 662,514 664,514 664,511 666,511 662,511 662,514 662,534 662,500 662,930 662,1500 662,1496 666,1496 664,1496 664,1499 666,1499 673,1499 688,1499 722,1499 802,1499 802,1254 821,1254 821,1280 802,1280"/>
<polyline points="666,534 673,534 688,534 662,534 673,534 670,534 670,530 673,530 666,530"/>
<polyline points="662,502 666,502 666,506 666,511 673,511 670,511 670,514 673,514 673,500 662,500 662,685 662,580 666,580 664,580 664,578 662,578 662,580 664,580 664,576 666,576 662,576 662,580 662,571 673,571 673,560 688,560 662,560 662,580 722,580 687,580 687,534 687,560 687,545 687,534 722,534 662,534"/>
<polyline points="666,514 666,511"/>
<polyline points="666,502 664,502"/>
<polyline points="662,506 673,506 666,506"/>
<polyline points="666,576 673,576 670,576 670,580 673,580 688,580 662,580 673,580 666,580 666,576 666,571 666,580"/>
<polyline points="673,580 673,571 681,571 681,560 688,560 688,565 681,565 681,560 673,560 673,580 673,576 673,571 666,571"/>
<polyline points="681,571 681,580 688,580 685,580 685,576 688,576 681,576 681,571 688,571 673,571"/>
<polyline points="707,560 716,560 716,571 707,571 707,560 707,545 716,545 716,534 707,534 707,545 687,545 696,545 696,534 687,534 707,534 707,560 722,560 687,560 707,560 707,580 722,580 802,580 662,580"/>
<polyline points="707,534 722,534 722,545 707,545"/>
<polyline points="715,571 715,580 722,580 719,580 719,576 722,576 715,576 715,571 722,571 707,571"/>
<polyline points="673,534 673,530 673,526 673,534 673,514 673,511 673,506 673,514 673,526 681,526 681,534 688,534 688,500 662,500 722,500 722,580 722,534 722,539 715,539 715,534 722,534 722,560 722,565 715,565 715,560 722,560 722,571"/>
<polyline points="662,514 688,514 673,514 681,514 681,526 688,526 673,526"/>
<polyline points="688,526 688,534 688,530 688,526 688,514 688,519 681,519 681,514 688,514 688,534 685,534 685,530 688,530 681,530 681,526"/>
<polyline points="688,580 688,576 688,571 688,580 688,560 688,571"/>
<polyline points="666,930 666,927 666,922 666,930 673,930 662,930 666,930 664,930 664,929 662,929 662,930 664,930 664,927 666,927 662,927 662,930 662,922 673,922 673,911 688,911 662,911 662,930 662,885 722,885 722,825 722,851 722,836 722,825 802,825 662,825 662,930 662,685 664,685 664,684 662,684 662,685 662,677 673,677 673,666 688,666 662,666 662,685 722,685 687,685 687,640 687,666 687,651 687,640 722,640 662,640 662,685 662,682 666,682 666,677"/>
<polyline points="666,927 673,927 673,922 666,922"/>
<polyline points="801,711 821,711 821,745 847,745 801,745 821,745 821,730 801,730 801,745 801,825 801,685 801,745 801,711 801,696 801,685 801,711 847,711"/>
<polyline points="673,930 673,922 681,922 681,911 688,911 688,916 681,916 681,911 673,911 673,930 673,927 670,927 670,930 673,930 688,930 662,930 987,930 801,930 801,685 847,685 847,745 907,745 801,745"/>
<polyline points="681,922 681,930 688,930 685,930 685,927 688,927 681,927 681,922 688,922 673,922"/>
<polyline points="707,885 716,885 716,896 707,896 707,911 722,911 688,911 707,911 707,885 722,885 688,885 707,885 707,896 688,896 696,896 696,885 688,885 688,930 688,911 688,896 688,885 688,911 688,922"/>
<polyline points="688,930 688,927 688,922 688,930 722,930 802,930 662,930 722,930 722,825 741,825 741,851 722,851 722,885 722,890 716,890 716,885 722,885 722,896 707,896"/>
<polyline points="707,922 722,922 722,911 722,916 716,916 716,911 716,922 707,922 707,911 716,911 722,911 722,885 741,885 741,870 722,870 722,885 767,885 767,825 767,851 767,836 767,825 722,825 730,825 730,836 722,836 741,836 741,851 767,851 722,851"/>
<polyline points="741,851 741,885 767,885 802,885 722,885 722,930 719,930 719,927 722,927 716,927 716,922 716,930 722,930 707,930 707,911"/>
<polyline points="722,911 722,930 722,927 722,922 716,922"/>
<polyline points="722,922 722,930"/>
<polyline points="1032,1175 1032,1254 1032,1220 1006,1220 1006,1254 1032,1254 986,1254 1006,1254 1006,1240 986,1240 986,1254 986,1220 1032,1220 1032,1175 1092,1175 986,1175 986,1254 1231,1254 1231,1499 1416,1499 986,1499 986,930 1032,930 1032,990 1032,1070 1092,1070 986,1070 1032,1070 1006,1070 1006,1055 986,1055 986,1070 1006,1070 1006,1035 1032,1035 986,1035 986,1070 986,1254 986,930 995,930 995,941 986,941 1006,941 1006,956 1006,990 1032,990 986,990 1006,990 1006,975 986,975 986,990 986,1070 986,930 1006,930 1006,956 986,956 986,990 986,930 986,956 986,941 986,930 1416,930 662,930"/>
<polyline points="986,956 1032,956 1032,990 1032,1035 1092,1035 1066,1035 1066,1070 1092,1070 1231,1070 986,1070"/>
<polyline points="1032,1070 1032,1035"/>
<polyline points="1032,990 1092,990 986,990"/>
<polyline points="1032,1220 1092,1220 1066,1220 1066,1254 1092,1254 1231,1254 1416,1254 986,1254 1092,1254 1032,1254"/>
<polyline points="1006,956 1032,956"/>
<polyline points="821,711 821,696 801,696 810,696 810,685 801,685 821,685 821,711 847,711 847,745 847,825 907,825 987,825 801,825 847,825 821,825 821,810 801,810 801,825 821,825 821,791 847,791 801,791 801,825 907,825 907,885 952,885 952,911 972,911 972,922"/>
<polyline points="847,745 847,791 847,825"/>
<polyline points="666,682 673,682 673,677 666,677 666,685 666,682 664,682 664,685 666,685 662,685 987,685 801,685 907,685 907,825 881,825 881,791 907,791 847,791"/>
<polyline points="673,685 673,677 681,677 681,666 688,666 688,670 681,670 681,666 673,666 673,685 673,682 670,682 670,685 673,685 688,685 662,685 673,685 666,685"/>
<polyline points="707,640 722,640 722,645 716,645 716,640 707,640 707,651 687,651 696,651 696,640 687,640 707,640 707,666 722,666 687,666 707,666 707,685 722,685 802,685 662,685"/>
<polyline points="681,677 681,685 688,685 685,685 685,682 688,682 681,682 681,677 688,677 673,677"/>
<polyline points="688,685 688,682 688,677 688,685 688,666 688,677"/>
<polyline points="722,560 722,580 722,640 716,640 716,651 707,651 707,666"/>
<polyline points="707,651 722,651 722,640 741,640 741,625 722,625 722,640 722,685 719,685 719,682 722,682 716,682 716,677 716,666 722,666 722,670 716,670 716,666 707,666 707,677 716,677 716,685 722,685 722,580 741,580 741,605 722,605 722,591 722,580 722,576 722,571 722,580 722,605 722,640 767,640 767,685 802,685 802,500 662,500 1416,500 1741,500 1741,501 1740,501 1742,501 1742,502 1742,506 1745,506 1740,506 1742,506 1742,504 1740,504 1740,506 1740,514 1740,500 1742,500 1742,502 1740,502 1740,506 1740,500 1740,502 1740,501 1740,500 1881,500 1881,501 1880,501 1882,501 1882,502 1882,506 1885,506 1880,506 1882,506 1882,504 1880,504 1880,506 1880,514 1880,500 1882,500 1882,502 1880,502 1880,506 1880,500 1880,502 1880,501 1880,500 1880,534 1880,530 1885,530 1885,526"/>
<polyline points="707,677 722,677 716,677"/>
<polyline points="1880,502 1885,502 1885,506 1885,514 1892,514 1880,514 1885,514 1882,514 1882,513 1880,513 1880,514 1882,514 1882,511 1885,511 1880,511 1880,514 1880,534 1880,580 1880,500 1885,500 1885,506 1892,506 1880,506"/>
<polyline points="1885,506 1885,511 1892,511 1889,511 1889,514 1892,514 1906,514 1880,514"/>
<polyline points="1885,514 1885,511"/>
<polyline points="1742,502 1745,502 1740,502"/>
<polyline points="741,605 741,640 767,640 767,580 767,605 767,591 767,580 722,580 730,580 730,591 722,591 741,591 741,605 767,605 722,605"/>
<polyline points="1745,514 1745,511 1745,506 1745,514 1752,514 1740,514 1745,514 1742,514 1742,513 1740,513 1740,514 1742,514 1742,511 1745,511 1740,511 1740,514 1740,534 1740,500 1745,500 1745,506 1745,502"/>
<polyline points="1745,511 1752,511 1749,511 1749,514 1752,514 1766,514 1740,514"/>
<polyline points="1740,506 1752,506 1745,506"/>
<polyline points="1885,502 1882,502"/>
<polyline points="722,666 722,685 722,682 722,677 722,666 722,640 802,640 767,640 787,640 787,651 767,651 776,651 776,640 767,640 767,666 767,651 767,640 767,605"/>
<polyline points="722,685 722,677"/>
<polyline points="907,711 926,711 926,696 907,696 915,696 915,685 907,685 907,745 907,711 907,696 907,685 907,711 952,711 972,711"/>
<polyline points="926,711 952,711 952,696 952,685 907,685 987,685 987,745 907,745 907,825 907,791 907,745 952,745 926,745 926,730 907,730 907,745 926,745 926,711 926,685 907,685"/>
<polyline points="952,685 972,685 972,696 952,696 961,696 961,685 952,685 987,685 987,711 952,711 952,745 952,685 952,711"/>
<polyline points="972,685 987,685 987,690 980,690 980,685 972,685 972,711 972,696"/>
<polyline points="1745,526 1745,534 1745,530 1742,530 1742,534 1745,534 1740,534 1742,534 1742,532 1740,532 1740,534 1740,530 1745,530 1745,526 1752,526 1740,526 1740,534 1740,580 1740,500 1740,685 1740,640 1801,640 1801,605 1801,591 1801,579 1801,605 1846,605 1866,605"/>
<polyline points="1745,530 1752,530 1749,530 1749,534 1752,534 1766,534 1740,534 1752,534 1745,534"/>
<polyline points="1092,1254 1092,1175 1171,1175 1171,1070 1231,1070 1231,1115 1171,1115 1171,1070 1092,1070 1092,1254 1092,1220 1092,1175 1092,1070 1092,1035 1092,990 1092,1070 1092,930 986,930 1231,930 1416,930 1741,930 1741,500 1740,500 1752,500 1752,514 1752,526 1760,526 1760,534 1766,534 1801,534 1740,534"/>
<polyline points="1171,1175 1171,1254 1231,1254 1205,1254 1205,1220 1231,1220 1171,1220 1171,1175 1231,1175 1092,1175"/>
<polyline points="1231,956 1276,956 1276,990 1276,930 1231,930 1239,930 1239,941 1231,941 1251,941 1251,956 1251,990 1276,990 1231,990 1251,990 1251,975 1231,975 1231,990 1231,1070 1231,1254 1231,930 1251,930 1251,956 1231,956 1231,990 1231,930 1231,956 1231,941 1231,930 1231,1070 1231,1175"/>
<polyline points="1231,990 1336,990 1336,930 1336,956 1336,941 1336,930 1231,930"/>
<polyline points="1276,956 1251,956"/>
<polyline points="1416,501 1418,501 1418,502 1418,506 1420,506 1416,506 1418,506 1418,504 1416,504 1416,506 1416,514 1416,500 1418,500 1418,502 1416,502 1416,506 1416,500 1416,502 1416,501 1416,500 1416,580 1476,580 1441,580 1441,534 1461,534 1461,560 1476,560 1441,560 1441,545 1441,534 1441,560 1461,560 1461,571"/>
<polyline points="1416,502 1420,502 1418,502"/>
<polyline points="1420,502 1420,506 1420,514 1427,514 1416,514 1420,514 1418,514 1418,513 1416,513 1416,514 1418,514 1418,511 1420,511 1416,511 1416,514 1416,534 1416,500 1420,500 1420,506 1427,506 1416,506"/>
<polyline points="1420,506 1420,511 1427,511 1424,511 1424,514 1427,514 1442,514 1416,514"/>
<polyline points="1420,514 1420,511"/>
<polyline points="1276,990 1276,1070 1276,1035 1276,990 1336,990 1336,956 1356,956 1356,941 1336,941 1345,941 1345,930 1336,930 1382,930 1416,930 1416,1070 1231,1070 1276,1070 1251,1070 1251,1055 1231,1055 1231,1070 1251,1070 1251,1035 1276,1035 1231,1035 1231,1070 1336,1070 1336,930 1416,930 1416,500 1416,685 1416,682 1420,682 1420,677"/>
<polyline points="1276,1035 1336,1035 1311,1035 1311,1070 1336,1070 1276,1070"/>
<polyline points="1336,956 1382,956 1382,941 1382,930 1401,930 1416,930 1416,990 1336,990 1336,1070 1336,1035 1336,990 1382,990 1356,990 1356,975 1336,975 1336,990 1356,990 1356,956 1356,930 1336,930"/>
<polyline points="1382,930 1390,930 1390,941 1382,941 1401,941 1401,930 1401,956 1382,956 1382,990 1382,930 1382,956 1356,956"/>
<polyline points="1401,930 1410,930 1416,930 1416,956 1382,956"/>
<polyline points="1420,682 1427,682 1427,677 1420,677 1420,685 1420,682 1418,682 1418,685 1420,685 1416,685 1418,685 1418,684 1416,684 1416,685 1416,677 1427,677 1427,666 1442,666 1416,666 1416,685 1416,640 1476,640 1476,579 1476,605 1476,591 1476,579 1556,579 1416,579 1416,685 1416,930 1416,935 1410,935 1410,930 1410,941 1401,941 1401,956"/>
<polyline points="1427,685 1427,677 1435,677 1435,666 1442,666 1442,670 1435,670 1435,666 1427,666 1427,685 1427,682 1424,682 1424,685 1427,685 1442,685 1416,685 1427,685 1420,685"/>
<polyline points="1435,677 1435,685 1442,685 1439,685 1439,682 1442,682 1435,682 1435,677 1442,677 1427,677"/>
<polyline points="1231,1280 1276,1280 1276,1314 1276,1254 1231,1254 1239,1254 1239,1265 1231,1265 1251,1265 1251,1280 1251,1314 1276,1314 1231,1314 1251,1314 1251,1299 1231,1299 1231,1314 1231,1394 1231,1254 1251,1254 1251,1280 1231,1280 1231,1314 1231,1254 1231,1280 1231,1265 1231,1254 1231,1220 1231,1175 1231,1254 1336,1254 1416,1254 1416,930 1420,930 1418,930 1418,929 1416,929 1416,930 1418,930 1418,927 1420,927 1416,927 1416,930 1416,922 1427,922 1427,911 1442,911 1416,911 1416,930 1416,885 1476,885 1476,825 1476,851 1476,836 1476,825 1556,825 1416,825 1416,930 1416,941 1401,941"/>
<polyline points="1276,1314 1276,1394 1276,1360 1251,1360 1251,1394 1276,1394 1231,1394 1251,1394 1251,1379 1231,1379 1231,1394 1231,1360 1276,1360 1276,1314 1336,1314 1231,1314"/>
<polyline points="1276,1360 1336,1360 1311,1360 1311,1394 1336,1394 1416,1394 1231,1394 1336,1394 1276,1394"/>
<polyline points="1251,1280 1276,1280"/>
<polyline points="1336,1254 1382,1254 1416,1254 1416,1314 1336,1314 1336,1394 1336,1360 1336,1314 1382,1314 1356,1314 1356,1299 1336,1299 1336,1314 1356,1314 1356,1280 1356,1265 1336,1265 1345,1265 1345,1254 1336,1254 1356,1254 1356,1280 1336,1280 1336,1314 1336,1254 1336,1280 1336,1265 1336,1254 1336,1394 1336,1499 1416,1499 1416,930 1427,930 1424,930 1424,927 1427,927 1420,927 1420,930 1420,922 1420,927"/>
<polyline points="1336,1280 1382,1280 1356,1280"/>
<polyline points="1420,922 1427,922 1435,922 1435,911 1442,911 1442,916 1435,916 1435,911 1427,911 1427,930 1420,930"/>
<polyline points="666,1491 673,1491 681,1491 681,1480 688,1480 688,1485 681,1485 681,1480 673,1480 673,1499 670,1499 670,1496 673,1496 666,1496 666,1499 666,1491 666,1496 666,1500 662,1500 664,1500 664,1498 662,1498 662,1500 662,1491 673,1491 673,1480 688,1480 662,1480 662,1500 662,1454 722,1454 722,1394 722,1420 722,1405 722,1394 802,1394 802,1314 847,1314 821,1314 821,1300 802,1300 802,1314 821,1314 821,1280 821,1265 802,1265 810,1265 810,1254 802,1254 987,1254 662,1254 662,1500 1416,1500 1416,930 1442,930 1427,930 1427,927 1427,922 1427,930"/>
<polyline points="707,1454 716,1454 716,1465 707,1465 707,1480 707,1454 722,1454 688,1454 707,1454 707,1465 688,1465 696,1465 696,1454 688,1454 688,1499 685,1499 685,1496 688,1496 681,1496 681,1491 681,1499 688,1499 688,1480 688,1500 662,1500 673,1500 673,1491 673,1499 673,1496 673,1491 688,1491 688,1480 688,1465 688,1454 688,1480 707,1480 707,1499 722,1499 722,1394 767,1394 802,1394 907,1394 907,1254 927,1254 927,1280 907,1280 907,1314 907,1254 907,1280 907,1265 907,1254 802,1254 847,1254 847,1314 907,1314 802,1314"/>
<polyline points="688,1480 722,1480 722,1454 767,1454 741,1454 741,1439 722,1439 722,1454 741,1454 741,1420 741,1405 722,1405 730,1405 730,1394 722,1394 741,1394 741,1420 722,1420 722,1454 722,1459 716,1459 716,1454 722,1454 722,1465 707,1465"/>
<polyline points="741,1420 767,1420 722,1420"/>
<polyline points="767,1394 776,1394 776,1405 767,1405 787,1405 787,1394 787,1420 767,1420 767,1454 767,1394 767,1420 767,1405 767,1394 787,1394 802,1394 802,1360 847,1360 907,1360 907,1314 927,1314 927,1300 907,1300 907,1314 952,1314 926,1314 926,1280 952,1280 907,1280"/>
<polyline points="787,1420 787,1405 795,1405 795,1394 802,1394 802,1399 795,1399 795,1394 787,1394"/>
<polyline points="767,1420 802,1420 802,1394 821,1394 821,1379 802,1379 802,1394 802,1405 787,1405"/>
<polyline points="688,1491 688,1499 688,1496 688,1491 681,1491"/>
<polyline points="907,1254 987,1254 987,1259 980,1259 980,1254 972,1254 972,1265 952,1265 961,1265 961,1254 952,1254 972,1254 972,1280 952,1280 952,1314 952,1254 952,1280 952,1265 952,1254 907,1254 915,1254 915,1265 907,1265 927,1265 927,1280"/>
<polyline points="972,1254 987,1254 952,1254"/>
<polyline points="972,1265 987,1265 987,1254 980,1254 980,1265 972,1265 972,1280"/>
<polyline points="707,1480 722,1480 722,1485 716,1485 716,1480 707,1480 707,1491 716,1491 716,1499 722,1499 722,1454 802,1454 802,1394 847,1394 907,1394 907,1314 987,1314 987,1254 987,1280 952,1280"/>
<polyline points="787,1454 795,1454 795,1465 787,1465 787,1480 802,1480 767,1480 787,1480 787,1454 802,1454 767,1454 787,1454 787,1465 767,1465 776,1465 776,1454 767,1454 767,1480 767,1465 767,1454 767,1499 802,1499 802,1394 802,1500 662,1500 722,1500 722,1454"/>
<polyline points="787,1480 795,1480 795,1491 787,1491 787,1480 787,1499 802,1499 987,1499 907,1499 907,1394 927,1394 927,1420 907,1420 907,1454 907,1394 907,1420 907,1405 907,1394 907,1360 881,1360 881,1394 907,1394 987,1394 802,1394"/>
<polyline points="907,1420 952,1420 952,1405 952,1394 907,1394 915,1394 915,1405 907,1405 927,1405 927,1420"/>
<polyline points="795,1491 795,1499 802,1499 799,1499 799,1496 802,1496 795,1496 795,1491 802,1491 787,1491"/>
<polyline points="802,1454 802,1499 802,1496 802,1491 802,1480 802,1485 795,1485 795,1480 802,1480 802,1454 802,1459 795,1459 795,1454 802,1454 802,1465 787,1465"/>
<polyline points="802,1491 802,1499 802,1480"/>
<polyline points="716,1491 716,1496 722,1496 722,1491 722,1480 716,1480 716,1491 722,1491 707,1491"/>
<polyline points="722,1480 722,1499 722,1496 719,1496 719,1499 722,1499 722,1491"/>
<polyline points="1420,580 1420,576 1420,571 1420,580 1427,580 1416,580 1420,580 1418,580 1418,578 1416,578 1416,580 1418,580 1418,576 1420,576 1416,576 1416,580 1416,571 1427,571 1427,560 1442,560 1416,560 1416,580 1416,534 1420,534 1418,534 1418,532 1416,532 1416,534 1418,534 1418,530 1420,530 1416,530 1416,534 1416,526 1427,526 1427,514 1427,511 1427,506 1427,514 1427,500 1416,500 1416,1500"/>
<polyline points="1420,576 1427,576 1424,576 1424,580 1427,580 1442,580 1416,580"/>
<polyline points="1427,580 1427,571 1435,571 1435,560 1442,560 1442,565 1435,565 1435,560 1427,560 1427,580 1427,576 1427,571 1420,571"/>
<polyline points="1435,571 1435,580 1442,580 1439,580 1439,576 1442,576 1435,576 1435,571 1442,571 1427,571"/>
<polyline points="847,1314 847,1394 821,1394 821,1360 847,1360 847,1314 847,1280 821,1280"/>
<polyline points="847,1394 847,1360"/>
<polyline points="1435,922 1435,930 1442,930 1439,930 1439,927 1442,927 1435,927 1435,922 1442,922 1427,922"/>
<polyline points="1461,885 1470,885 1470,896 1461,896 1461,911 1476,911 1442,911 1461,911 1461,885 1476,885 1442,885 1461,885 1461,896 1442,896 1450,896 1450,885 1442,885 1442,930 1442,911 1442,896 1442,885 1442,911 1442,922"/>
<polyline points="1442,930 1442,927 1442,922 1442,930 1476,930 1556,930 1416,930 1476,930 1476,825 1495,825 1495,851 1476,851 1476,885 1476,890 1470,890 1470,885 1476,885 1476,896 1461,896"/>
<polyline points="1420,534 1420,530 1420,526 1420,534 1427,534 1416,534 1442,534 1442,500 1416,500 1986,500 1986,930 1416,930"/>
<polyline points="1420,526 1427,526 1435,526 1435,514 1442,514 1442,519 1435,519 1435,514 1427,514 1427,534 1424,534 1424,530 1427,530 1420,530"/>
<polyline points="1461,640 1470,640 1470,651 1461,651 1461,666 1476,666 1441,666 1461,666 1461,640 1476,640 1441,640 1461,640 1461,651 1441,651 1450,651 1450,640 1441,640 1441,666 1441,651 1441,640 1441,685 1476,685 1416,685 1556,685 1556,500 1416,500 1476,500 1476,580 1473,580 1473,576 1476,576 1469,576 1469,571 1469,580 1476,580 1461,580 1461,560 1461,545 1470,545 1470,534 1461,534 1461,545 1441,545 1450,545 1450,534 1441,534 1476,534 1416,534"/>
<polyline points="1461,666 1470,666 1470,677 1461,677 1461,666 1461,685 1476,685 1476,579 1495,579 1495,605 1476,605 1476,640 1476,644 1470,644 1470,640 1476,640 1476,651 1461,651"/>
<polyline points="1470,677 1470,685 1476,685 1473,685 1473,682 1476,682 1470,682 1470,677 1476,677 1461,677"/>
<polyline points="1495,605 1495,640 1521,640 1556,640 1476,640 1476,685 1476,682 1476,677 1476,666 1476,670 1470,670 1470,666 1476,666 1476,640 1495,640 1495,625 1476,625 1476,640 1521,640 1521,579 1521,605 1521,591 1521,579 1476,579 1484,579 1484,591 1476,591 1495,591 1495,605 1521,605 1476,605"/>
<polyline points="1476,677 1476,685 1476,666"/>
<polyline points="1521,579 1556,579 1556,584 1549,584 1549,579 1541,579 1541,591 1521,591 1530,591 1530,579 1521,579 1541,579 1541,605 1521,605 1521,640 1521,685 1556,685 1476,685"/>
<polyline points="1541,579 1556,579 1549,579 1549,591 1541,591 1541,605"/>
<polyline points="1521,605 1556,605 1556,579 1556,591 1541,591"/>
<polyline points="1469,571 1476,571 1461,571 1470,571 1470,560 1461,560"/>
<polyline points="1461,534 1476,534 1476,545 1461,545"/>
<polyline points="1555,745 1661,745 1661,685 1661,711 1661,696 1661,685 1555,685 1601,685 1601,745 1601,825 1661,825 1741,825 1555,825 1601,825 1575,825 1575,810 1555,810 1555,825 1575,825 1575,790 1601,790 1555,790 1555,825 1661,825 1661,930 1741,930 1555,930 1555,685 1564,685 1564,696 1555,696 1575,696 1575,711 1575,745 1601,745 1555,745 1575,745 1575,730 1555,730 1555,745 1555,825 1555,685 1575,685 1575,711 1555,711 1555,745 1555,685 1555,711 1555,696 1555,685 1741,685 1416,685"/>
<polyline points="1555,711 1601,711 1575,711"/>
<polyline points="1601,825 1601,790 1601,745 1601,711"/>
<polyline points="1601,745 1661,745 1661,711 1680,711 1680,696 1661,696 1669,696 1669,685 1661,685 1661,825 1635,825 1635,790 1661,790 1601,790"/>
<polyline points="1661,685 1741,685 1741,745 1661,745 1661,825 1661,790 1661,745 1680,745 1680,730 1661,730 1661,745 1706,745 1706,685 1706,711 1706,696 1706,685 1661,685 1680,685 1680,711 1706,711 1661,711"/>
<polyline points="1706,685 1741,685 1741,690 1734,690 1734,685 1726,685 1726,696 1706,696 1715,696 1715,685 1706,685 1726,685 1726,711 1706,711 1706,745 1680,745 1680,711"/>
<polyline points="1726,685 1741,685 1734,685 1734,696 1726,696 1726,711"/>
<polyline points="1706,711 1741,711 1741,685 1741,696 1726,696"/>
<polyline points="1461,922 1476,922 1476,911 1476,916 1470,916 1470,911 1470,922 1461,922 1461,911 1470,911 1476,911 1476,885 1495,885 1495,870 1476,870 1476,885 1521,885 1521,825 1521,851 1521,836 1521,825 1476,825 1484,825 1484,836 1476,836 1495,836 1495,851 1521,851 1476,851"/>
<polyline points="1461,911 1461,930 1476,930 1476,911"/>
<polyline points="1521,825 1556,825 1556,829 1549,829 1549,825 1541,825 1541,836 1521,836 1530,836 1530,825 1521,825 1541,825 1541,851 1521,851 1521,885 1495,885 1495,851"/>
<polyline points="1541,851 1541,836 1549,836 1549,825 1556,825 1541,825"/>
<polyline points="1521,851 1556,851 1556,825 1556,836 1541,836"/>
<polyline points="972,1454 987,1454 987,1459 980,1459 980,1454 972,1454 972,1465 952,1465 961,1465 961,1454 952,1454 972,1454 972,1480 987,1480 952,1480 972,1480 972,1499 987,1499 952,1499 952,1454 952,1480 952,1465 952,1454 952,1420 952,1394 952,1454 987,1454 907,1454 927,1454 927,1439 907,1439 907,1454 952,1454 926,1454 926,1420 952,1420 972,1420"/>
<polyline points="952,1394 972,1394 972,1405 952,1405 961,1405 961,1394 952,1394 987,1394 987,1420 952,1420"/>
<polyline points="972,1405 987,1405 987,1394 987,1454 980,1454 980,1465 972,1465 972,1480 972,1491 980,1491 980,1499 987,1499 987,1254 987,1394 987,1399 980,1399 980,1394 987,1394 972,1394 980,1394 980,1405 972,1405 972,1420 972,1394"/>
<polyline points="972,1480 980,1480 980,1491 980,1496 987,1496 984,1496 984,1499 987,1499 987,1394"/>
<polyline points="972,1491 987,1491 980,1491"/>
<polyline points="907,851 952,851 952,836 952,825 907,825 926,825 926,851 926,885 952,885 987,885 907,885 926,885 926,870 907,870 907,885 907,851 926,851 926,836 907,836 915,836 915,825 907,825 907,851 907,836 907,825 907,930 987,930 987,500 662,500 1987,500 1987,1500 662,1500 987,1500 987,1254"/>
<polyline points="952,825 987,825 987,830 980,830 980,825 972,825 972,836 952,836 961,836 961,825 952,825 972,825 972,851 952,851 952,885 952,825 952,851 926,851"/>
<polyline points="972,851 972,836 980,836 980,825 987,825 972,825"/>
<polyline points="972,885 987,885 987,890 980,890 980,885 972,885 972,896 952,896 961,896 961,885 952,885 972,885 972,911 987,911 952,911 952,896 952,885 952,930 987,930 987,685 987,696 972,696 980,696 980,685 987,685 987,825 987,836 972,836"/>
<polyline points="972,911 980,911 980,922 987,922 972,922 980,922 980,930 987,930 972,930 972,911 972,896 980,896 980,885 987,885 987,825 987,851 952,851"/>
<polyline points="980,922 980,927 987,927 984,927 984,930 987,930 987,825"/>
<polyline points="987,885 987,930 987,927 987,922 987,911 987,916 980,916 980,911 987,911 987,885 987,896 972,896"/>
<polyline points="987,922 987,930 987,911"/>
<polyline points="987,1454 987,1499 987,1496 987,1491 987,1480 987,1485 980,1485 980,1480 987,1480 987,1454 987,1465 972,1465"/>
<polyline points="987,1491 987,1499 987,1480"/>
<polyline points="1442,677 1442,685 1442,682 1442,677 1442,666 1442,685"/>
<polyline points="1427,526 1442,526 1442,514 1442,534 1439,534 1439,530 1442,530 1435,530 1435,526 1435,534 1442,534 1427,534 1427,530 1427,526 1427,534"/>
<polyline points="1442,526 1442,534 1442,530 1442,526 1435,526"/>
<polyline points="1541,640 1556,640 1556,644 1549,644 1549,640 1541,640 1541,651 1521,651 1530,651 1530,640 1521,640 1541,640 1541,666 1556,666 1521,666 1521,651 1521,640 1521,666 1541,666 1541,677"/>
<polyline points="1549,677 1549,685 1556,685 1553,685 1553,682 1556,682 1549,682 1549,677 1556,677 1541,677 1549,677 1549,666 1556,666 1556,670 1549,670 1549,666 1541,666 1541,685 1556,685 1556,579 1556,640 1549,640 1549,651 1541,651 1541,666"/>
<polyline points="1556,640 1556,685 1556,682 1556,677 1556,666 1556,640 1556,651 1541,651"/>
<polyline points="1556,666 1556,685 1556,677"/>
<polyline points="767,825 802,825 802,830 795,830 795,825 787,825 787,836 767,836 776,836 776,825 767,825 787,825 787,851 767,851 767,885 767,911 787,911 787,922"/>
<polyline points="787,851 787,836 795,836 795,825 802,825 787,825"/>
<polyline points="767,851 802,851 802,825 802,836 787,836"/>
<polyline points="1470,922 1476,922 1476,930 1473,930 1473,927 1476,927 1470,927 1470,922 1470,930 1476,930 1476,885 1556,885 1521,885 1530,885 1530,896 1521,896 1541,896 1541,911 1541,930 1556,930 1521,930 1521,885 1541,885 1541,911 1556,911 1521,911 1521,896 1521,885 1521,911 1541,911 1541,922"/>
<polyline points="1549,922 1549,930 1556,930 1553,930 1553,927 1556,927 1549,927 1549,922 1556,922 1541,922 1549,922 1549,911 1556,911 1556,916 1549,916 1549,911 1541,911"/>
<polyline points="1476,930 1476,927 1476,922"/>
<polyline points="1541,885 1549,885 1549,896 1541,896 1541,885 1556,885 1556,911 1556,922"/>
<polyline points="1541,896 1556,896 1556,885 1556,890 1549,890 1549,885 1556,885 1556,825 1556,930 1556,911"/>
<polyline points="1556,930 1556,927 1556,922 1556,930 1556,885"/>
<polyline points="1752,534 1752,530 1752,526 1752,534 1752,514 1752,511 1752,506 1752,514 1760,514 1760,526"/>
<polyline points="1745,580 1745,576 1745,571 1745,580 1752,580 1740,580 1745,580 1742,580 1742,578 1740,578 1740,580 1742,580 1742,576 1745,576 1740,576 1740,580 1740,571 1752,571 1752,560 1766,560 1740,560 1740,580 1801,580 1801,500 1740,500 1766,500 1766,534 1764,534 1764,530 1766,530 1760,530 1760,526 1766,526 1752,526"/>
<polyline points="1745,576 1752,576 1749,576 1749,580 1752,580 1766,580 1740,580"/>
<polyline points="1752,580 1752,571 1760,571 1760,560 1766,560 1766,565 1760,565 1760,560 1752,560 1752,580 1752,576 1752,571 1745,571"/>
<polyline points="1745,677 1745,685 1745,682 1742,682 1742,685 1745,685 1740,685 1742,685 1742,684 1740,684 1740,685 1740,682 1745,682 1745,677 1752,677 1740,677 1740,685 1740,666 1766,666 1766,651 1766,640 1801,640 1801,579 1881,579 1740,579 1740,685 1881,685 1881,500 1880,500 1986,500 1740,500"/>
<polyline points="1745,682 1752,682 1749,682 1749,685 1752,685 1766,685 1740,685 1752,685 1745,685"/>
<polyline points="1760,571 1760,580 1766,580 1764,580 1764,576 1766,576 1760,576 1760,571 1766,571 1752,571"/>
<polyline points="1766,526 1766,534 1766,530 1766,526 1766,514 1766,519 1760,519 1760,514 1766,514 1766,534 1766,560 1766,571"/>
<polyline points="1752,685 1752,677 1760,677 1760,666 1766,666 1766,670 1760,670 1760,666 1752,666 1752,685 1752,682 1752,677 1752,666 1766,666 1766,640 1786,640 1801,640 1846,640 1846,666 1866,666 1866,677"/>
<polyline points="1760,677 1760,685 1766,685 1764,685 1764,682 1766,682 1760,682 1760,677 1766,677 1752,677"/>
<polyline points="1786,640 1794,640 1794,651 1786,651 1786,666 1801,666 1766,666 1786,666 1786,640 1786,651 1766,651 1775,651 1775,640 1766,640 1766,685 1766,666 1766,677"/>
<polyline points="1786,677 1801,677 1801,666 1801,670 1794,670 1794,666 1794,677 1786,677 1786,666 1794,666 1801,666 1801,640 1820,640 1820,625 1801,625 1801,640 1801,644 1794,644 1794,640 1801,640 1801,651 1786,651"/>
<polyline points="1885,530 1892,530 1892,526 1885,526 1885,534 1885,530 1882,530 1882,534 1885,534 1880,534 1882,534 1882,532 1880,532 1880,534 1880,526 1892,526 1892,514 1892,511 1892,506 1892,514 1892,500 1880,500 1941,500 1986,500 1986,685 1740,685 1801,685 1801,666"/>
<polyline points="1766,685 1766,682 1766,677 1766,685 1801,685 1786,685 1786,666"/>
<polyline points="1885,534 1892,534 1880,534 1906,534 1906,500 1880,500"/>
<polyline points="1892,534 1892,526 1900,526 1900,514 1906,514 1906,519 1900,519 1900,514 1892,514 1892,534 1892,530 1889,530 1889,534 1892,534 1906,534 1941,534 1880,534"/>
<polyline points="1900,526 1900,534 1906,534 1904,534 1904,530 1906,530 1900,530 1900,526 1906,526 1892,526"/>
<polyline points="1885,571 1885,580 1885,576 1882,576 1882,580 1885,580 1880,580 1882,580 1882,578 1880,578 1880,580 1880,576 1885,576 1885,571 1892,571 1880,571 1880,580 1880,560 1906,560 1906,545 1906,534 1906,530 1906,526 1906,534 1906,514 1906,526"/>
<polyline points="1885,576 1892,576 1889,576 1889,580 1892,580 1906,580 1880,580 1892,580 1885,580"/>
<polyline points="1892,571 1906,571 1906,560 1906,580 1904,580 1904,576 1906,576 1900,576 1900,571 1900,580 1906,580 1906,534 1906,560 1906,565 1900,565 1900,560 1906,560 1892,560 1900,560 1900,571 1892,571 1892,580 1892,576 1892,571 1892,560 1892,580"/>
<polyline points="1906,571 1906,580 1906,576 1906,571 1900,571"/>
<polyline points="1926,534 1934,534 1934,545 1926,545 1926,560 1941,560 1906,560 1926,560 1926,534 1926,545 1906,545 1915,545 1915,534 1906,534 1926,534 1941,534 1941,500 1942,500 1942,501 1941,501 1943,501 1943,502 1943,506 1946,506 1941,506 1943,506 1943,504 1941,504 1941,506 1941,514 1941,500 1943,500 1943,502 1941,502 1941,506 1941,500 1941,502 1941,501 1941,500 1967,500 1986,500 1986,580 1880,580 1941,580 1906,580"/>
<polyline points="1926,560 1934,560 1934,571 1926,571 1926,560 1926,580 1941,580 1941,500 1946,500 1946,506 1952,506 1941,506"/>
<polyline points="1943,502 1946,502 1941,502"/>
<polyline points="1946,502 1946,506 1946,514 1952,514 1941,514 1946,514 1943,514 1943,513 1941,513 1941,514 1943,514 1943,511 1946,511 1941,511 1941,514 1941,534 1941,539 1934,539 1934,534 1941,534 1941,545 1926,545"/>
<polyline points="1946,506 1946,511 1952,511 1949,511 1949,514 1952,514 1967,514 1941,514"/>
<polyline points="1934,571 1934,580 1941,580 1938,580 1938,576 1941,576 1934,576 1934,571 1941,571 1926,571"/>
<polyline points="1946,534 1946,530 1946,526 1946,534 1952,534 1941,534 1941,580 1941,576 1941,571 1941,560 1941,565 1934,565 1934,560 1941,560 1941,534 1946,534 1943,534 1943,532 1941,532 1941,534 1943,534 1943,530 1946,530 1941,530 1941,534 1941,526 1952,526 1952,514 1952,511 1952,506 1952,514 1952,500 1941,500"/>
<polyline points="1941,571 1941,580 1941,560"/>
<polyline points="1946,511 1946,514"/>
<polyline points="1946,530 1952,530 1952,526 1946,526"/>
<polyline points="1952,534 1967,534 1967,500 1968,500 1968,501 1967,501 1969,501 1969,502 1969,506 1972,506 1967,506 1969,506 1969,504 1967,504 1967,506 1967,514 1967,500 1969,500 1969,502 1967,502 1967,506 1967,500 1967,502 1967,501 1967,500 1978,500 1986,500 1986,534 1941,534 1967,534 1964,534 1964,530 1967,530 1960,530 1960,526 1967,526 1952,526 1960,526 1960,514 1967,514 1967,519 1960,519 1960,514 1952,514 1952,534 1952,530 1949,530 1949,534 1952,534 1952,526"/>
<polyline points="1967,502 1972,502 1972,506 1972,500 1967,500"/>
<polyline points="1960,526 1960,534 1967,534 1967,530 1967,526 1967,514 1969,514 1969,513 1967,513 1967,514 1967,511 1972,511 1972,506 1978,506 1967,506"/>
<polyline points="1972,506 1972,514 1972,511 1969,511 1969,514 1972,514 1967,514 1967,534 1967,526"/>
<polyline points="1972,511 1978,511 1975,511 1975,514 1978,514 1978,500 1980,500 1980,502 1978,502 1978,506 1978,500 1978,502 1978,501 1978,500 1983,500 1986,500 1986,514 1967,514 1978,514 1972,514"/>
<polyline points="1978,502 1983,502 1983,501 1983,500 1985,500 1986,500 1986,506 1978,506 1978,514 1978,511 1978,506 1983,506 1980,506 1980,504 1978,504 1978,506 1980,506 1980,502 1980,501 1978,501 1979,501 1979,500 1978,500"/>
<polyline points="1972,502 1969,502"/>
<polyline points="1983,500 1984,500 1984,501 1983,501 1985,501 1985,500 1985,502 1983,502 1983,506 1983,500 1983,502 1980,502"/>
<polyline points="1985,502 1985,501 1986,501 1986,500 1986,502 1983,502"/>
<polyline points="1661,851 1706,851 1706,836 1706,825 1661,825 1680,825 1680,851 1680,885 1706,885 1741,885 1661,885 1680,885 1680,870 1661,870 1661,885 1661,851 1680,851 1680,836 1661,836 1669,836 1669,825 1661,825 1661,851 1661,836 1661,825 1661,885 1706,885 1706,911 1726,911 1726,922"/>
<polyline points="1706,825 1741,825 1741,829 1734,829 1734,825 1726,825 1726,836 1706,836 1715,836 1715,825 1706,825 1726,825 1726,851 1706,851 1706,885 1706,825 1706,851 1680,851"/>
<polyline points="1726,825 1741,825 1734,825 1734,836 1726,836 1726,851"/>
<polyline points="1726,885 1741,885 1741,890 1734,890 1734,885 1726,885 1726,896 1706,896 1715,896 1715,885 1706,885 1726,885 1726,911 1741,911 1706,911 1706,896 1706,885 1706,930 1741,930 1741,685 1741,825 1741,851 1706,851"/>
<polyline points="1726,911 1734,911 1734,922 1741,922 1726,922 1734,922 1734,930 1741,930 1726,930 1726,911 1726,896 1734,896 1734,885 1741,885 1741,825 1741,836 1726,836"/>
<polyline points="1741,825 1741,930 1738,930 1738,927 1741,927 1734,927 1734,922"/>
<polyline points="1741,885 1741,930 1741,927 1741,922 1741,911 1741,916 1734,916 1734,911 1741,911 1741,885 1741,896 1726,896"/>
<polyline points="1741,922 1741,930 1741,911"/>
<polyline points="1382,1254 1401,1254 1401,1265 1382,1265 1390,1265 1390,1254 1382,1254 1382,1314 1382,1280 1382,1265 1382,1254 1382,1280 1401,1280"/>
<polyline points="1401,1254 1410,1254 1410,1265 1401,1265 1401,1280 1401,1254 1416,1254 1416,1280 1382,1280"/>
<polyline points="1336,1420 1382,1420 1382,1405 1382,1394 1382,1454 1416,1454 1336,1454 1382,1454 1356,1454 1356,1439 1336,1439 1336,1454 1356,1454 1356,1420 1356,1405 1336,1405 1345,1405 1345,1394 1336,1394 1356,1394 1356,1420 1336,1420 1336,1454 1336,1394 1336,1420 1336,1405 1336,1394 1382,1394 1416,1394 1416,1254 1416,1259 1410,1259 1410,1254 1416,1254 1416,1265 1401,1265"/>
<polyline points="1382,1394 1401,1394 1401,1405 1382,1405 1390,1405 1390,1394 1382,1394 1382,1420 1356,1420"/>
<polyline points="1401,1394 1416,1394 1416,1399 1410,1399 1410,1394 1401,1394 1401,1420 1382,1420 1382,1454 1382,1499 1416,1499 1416,1254"/>
<polyline points="1401,1420 1401,1405 1410,1405 1410,1394 1416,1394 1416,1420 1382,1420"/>
<polyline points="1401,1454 1410,1454 1410,1465 1401,1465 1401,1480 1416,1480 1382,1480 1401,1480 1401,1454 1401,1465 1382,1465 1390,1465 1390,1454 1382,1454 1382,1480 1382,1465 1382,1454 1401,1454 1416,1454 1416,1394 1416,1405 1401,1405"/>
<polyline points="1401,1480 1410,1480 1410,1491 1401,1491 1401,1480 1401,1499 1416,1499 1416,1394"/>
<polyline points="1401,1491 1416,1491 1416,1480 1416,1485 1410,1485 1410,1480 1416,1480 1416,1454 1416,1459 1410,1459 1410,1454 1416,1454 1416,1465 1401,1465"/>
<polyline points="1416,1454 1416,1499 1413,1499 1413,1496 1416,1496 1410,1496 1410,1491 1410,1499 1416,1499 1416,1480"/>
<polyline points="1416,1491 1416,1499 1416,1496 1416,1491 1410,1491"/>
<polyline points="1786,534 1801,534 1801,539 1794,539 1794,534 1786,534 1786,545 1766,545 1775,545 1775,534 1766,534 1786,534 1786,560 1801,560 1766,560 1766,580 1766,534 1766,545 1766,560 1786,560 1786,571"/>
<polyline points="1786,545 1801,545 1801,534 1794,534 1794,545 1786,545 1786,560"/>
<polyline points="1794,571 1794,580 1801,580 1798,580 1798,576 1801,576 1794,576 1794,571 1801,571 1786,571 1794,571 1794,560 1801,560 1801,565 1794,565 1794,560 1786,560 1786,580 1801,580 1766,580 1766,576 1766,571 1766,580"/>
<polyline points="1801,571 1801,580 1801,576 1801,571 1801,560 1801,580 1801,534 1801,560"/>
<polyline points="1442,580 1442,576 1442,571 1442,580 1442,560 1442,571"/>
<polyline points="1476,560 1476,580 1476,534 1476,539 1469,539 1469,534 1476,534 1476,560 1476,565 1469,565 1469,560 1476,560 1476,571"/>
<polyline points="787,640 802,640 802,644 795,644 795,640 787,640 787,666 802,666 767,666 787,666 787,651"/>
<polyline points="767,580 787,580 787,591 767,591 776,591 776,580 767,580 802,580 802,685 799,685 799,682 802,682 795,682 795,677 795,685 802,685 787,685 787,666 795,666 795,677 787,677 787,666"/>
<polyline points="787,677 802,677 795,677"/>
<polyline points="787,605 787,591 795,591 795,580 802,580 802,584 795,584 795,580 787,580 802,580 802,605 767,605 787,605 787,580"/>
<polyline points="802,640 802,685 802,682 802,677 802,666 802,670 795,670 795,666 802,666 802,640 802,651 787,651 795,651 795,640 802,640 802,580 802,591 787,591"/>
<polyline points="802,666 802,685 802,677"/>
<polyline points="1794,677 1794,685 1801,685 1798,685 1798,682 1801,682 1794,682 1794,677 1801,677"/>
<polyline points="1801,605 1820,605 1820,640 1846,640 1881,640 1801,640 1801,685 1801,579 1846,579 1846,591 1866,591"/>
<polyline points="1820,605 1820,591 1801,591 1809,591 1809,579 1801,579 1820,579 1820,605 1846,605 1846,579 1846,640 1846,685 1881,685 1801,685 1801,682 1801,677 1801,685"/>
<polyline points="1866,640 1881,640 1881,644 1874,644 1874,640 1866,640 1866,651 1846,651 1855,651 1855,640 1846,640 1866,640 1866,666 1881,666 1846,666 1846,651 1846,640 1846,605 1846,591 1855,591 1855,579 1846,579"/>
<polyline points="1866,666 1874,666 1874,677 1881,677 1866,677 1874,677 1874,685 1881,685 1866,685 1866,666 1866,651"/>
<polyline points="1866,579 1881,579 1881,584 1874,584 1874,579 1866,579 1866,605 1866,591 1866,579 1846,579 1881,579 1881,685 1878,685 1878,682 1881,682 1874,682 1874,677"/>
<polyline points="1846,605 1881,605 1881,579 1881,591 1866,591 1874,591 1874,579 1881,579 1881,640 1881,651 1866,651 1874,651 1874,640 1881,640 1881,666 1881,670 1874,670 1874,666 1881,666 1881,677"/>
<polyline points="1881,666 1881,685 1881,640"/>
<polyline points="795,922 795,930 802,930 799,930 799,927 802,927 795,927 795,922 802,922 787,922 795,922 795,911 802,911 802,916 795,916 795,911 787,911 787,930 802,930 767,930 767,885 776,885 776,896 767,896 787,896 787,911 802,911 767,911 767,896 767,885 787,885 787,911"/>
<polyline points="787,896 802,896 802,885 802,930 802,825 802,885 802,890 795,890 795,885 802,885 787,885 795,885 795,896 787,896 787,885"/>
<polyline points="802,885 802,911 802,922"/>
<polyline points="802,911 802,930"/>
<polyline points="802,930 802,927 802,922 802,930"/>
<polyline points="1881,685 1881,682 1881,677 1881,685"/>
<polyline points="1476,571 1476,580 1476,576 1476,571"/>
</svg>
