<svg xmlns="http://www.w3.org/2000/svg"
	width="106px" height="113px"
	viewBox="18 41 106 113"
	xmlns:xlink="http://www.w3.org/1999/xlink">
<defs><style type="text/css"><![CDATA[
polyline { stroke:#000000; fill:none; stroke-width: 1 }
]]></style></defs>
<polyline points="19,123 19,122 18,122"/>
<polyline points="55,75 54,75 53,76"/>
<polyline points="57,75 56,76 55,76 54,75"/>
<polyline points="57,76 56,76"/>
<polyline points="52,79 53,79"/>
<polyline points="54,92 54,93 54,94 53,94 53,95"/>
<polyline points="20,118 20,117 19,117"/>
<polyline points="54,124 54,123 53,124 53,126"/>
<polyline points="55,65 55,66 54,66 54,67"/>
<polyline points="51,137 51,136 52,136 53,137"/>
<polyline points="52,136 52,137"/>
<polyline points="51,133 50,134 52,133"/>
<polyline points="51,128 51,127 52,126 52,127"/>
<polyline points="39,72 48,71 49,74 53,74 54,74"/>
<polyline points="52,74 53,74 54,72"/>
<polyline points="53,73 53,74"/>
<polyline points="55,74 56,73 57,73 58,74 59,74 59,75 54,82"/>
<polyline points="60,77 61,76 61,75 61,74 62,75 63,75 63,76 64,76 66,75 67,76 67,75 68,75 59,75"/>
<polyline points="63,73 62,75 62,74 61,74"/>
<polyline points="63,75 63,74 62,74"/>
<polyline points="50,119 50,120 51,119 52,117 53,116 53,118 53,119 52,121"/>
<polyline points="54,122 55,122 55,121 55,120 54,121"/>
<polyline points="55,126 55,125 55,124 55,123 54,125"/>
<polyline points="53,63 52,63 53,62 52,62 52,61 53,61 55,60"/>
<polyline points="51,61 52,60 53,60 52,61"/>
<polyline points="53,64 52,63"/>
<polyline points="55,59 54,59 54,58 53,59 53,58 52,59"/>
<polyline points="56,68 55,68"/>
<polyline points="53,62 55,63 56,63 55,64"/>
<polyline points="47,137 48,136 49,135 50,136 52,134"/>
<polyline points="50,135 49,135 49,136 50,136"/>
<polyline points="52,118 53,117 53,116 52,118 52,119 51,120 52,120 51,121 51,122"/>
<polyline points="53,119 53,120 53,121 54,120 52,120 52,119"/>
<polyline points="124,68 124,69"/>
<polyline points="54,119 53,120"/>
<polyline points="53,114 53,113 54,114 55,114"/>
<polyline points="47,79 48,79 51,80"/>
<polyline points="51,79 50,79 49,79 48,79"/>
<polyline points="57,66 56,67 56,66 55,67"/>
<polyline points="59,72 58,72 57,72 56,72"/>
<polyline points="60,73 60,72 61,72 58,72"/>
<polyline points="55,91 55,92 54,93 55,93 55,94"/>
<polyline points="55,93 56,93"/>
<polyline points="56,117 57,117 56,118"/>
<polyline points="55,131 56,130 56,131"/>
<polyline points="49,136 49,137 50,137 49,138 50,138"/>
<polyline points="58,67 58,66 59,66 58,65 58,64 59,63 58,63 57,63 57,64"/>
<polyline points="58,63 59,64 58,64"/>
<polyline points="54,120 56,116 56,115"/>
<polyline points="61,64 59,64 59,63"/>
<polyline points="57,112 56,112 57,110 57,111"/>
<polyline points="49,110 50,110"/>
<polyline points="49,80 50,80 50,81"/>
<polyline points="49,81 50,80"/>
<polyline points="57,117 58,117 57,118 57,119"/>
<polyline points="50,73 51,73 51,74 50,74"/>
<polyline points="46,74 47,73 48,73 50,72"/>
<polyline points="122,72 123,72 123,73"/>
<polyline points="58,135 56,120 55,120 56,119 55,121 57,121"/>
<polyline points="66,111 66,112 66,113 56,120"/>
<polyline points="59,116 59,117 58,117 58,118 57,118 60,118 58,115"/>
<polyline points="60,117 59,117"/>
<polyline points="45,67 46,67 49,65 49,64 50,64 50,63"/>
<polyline points="59,119 58,118 58,119 59,120 58,120"/>
<polyline points="58,122 59,122 59,121 59,120"/>
<polyline points="60,123 60,122 59,121"/>
<polyline points="61,72 61,73 58,74 57,74"/>
<polyline points="61,70 61,71 62,72 61,73"/>
<polyline points="62,71 61,71"/>
<polyline points="60,94 60,95 59,95"/>
<polyline points="58,84 59,85 59,84 58,84 58,85 58,86 58,88 59,88"/>
<polyline points="58,87 58,88"/>
<polyline points="47,126 47,125 48,125 49,124 49,125"/>
<polyline points="59,99 59,98 59,97"/>
<polyline points="49,123 49,122"/>
<polyline points="59,100 60,100 60,102 60,101 59,101"/>
<polyline points="61,102 60,101"/>
<polyline points="48,125 48,126 49,126"/>
<polyline points="47,99 48,99 49,99"/>
<polyline points="47,73 47,74 48,74 49,74 49,75 50,75"/>
<polyline points="57,93 57,94 56,94 58,93 58,94"/>
<polyline points="48,73 47,74"/>
<polyline points="59,74 58,75 60,75"/>
<polyline points="47,71 48,71 48,72 49,72"/>
<polyline points="48,75 48,76 47,76 47,77 48,77 49,77"/>
<polyline points="62,90 63,90 60,92 61,92 61,97 60,95 60,96 60,97"/>
<polyline points="61,96 61,97 61,98 62,98 63,98 64,95 63,90"/>
<polyline points="46,65 47,65 47,66 46,66 46,67 47,68 49,68"/>
<polyline points="61,62 60,63 61,63"/>
<polyline points="61,76 61,77"/>
<polyline points="40,140 41,139 42,138 42,139 43,139 46,137 48,134"/>
<polyline points="43,141 42,141 43,139"/>
<polyline points="60,96 60,98 61,99"/>
<polyline points="51,118 50,118"/>
<polyline points="44,129 45,128 48,124 48,121"/>
<polyline points="49,108 48,108 48,109"/>
<polyline points="62,117 63,117 63,116 62,116 62,117 61,116 61,117"/>
<polyline points="59,118 60,118 61,119"/>
<polyline points="64,45 63,45 63,46 62,45 62,46"/>
<polyline points="64,46 63,46"/>
<polyline points="39,78 40,78 41,78 42,78 43,78 46,79 48,78"/>
<polyline points="42,79 43,78 43,77 42,78"/>
<polyline points="64,121 64,120 63,120 63,119 62,118 62,119 61,118 62,118 63,115 60,112"/>
<polyline points="65,119 63,119"/>
<polyline points="63,123 63,122 64,122 65,122 65,121 64,120"/>
<polyline points="65,123 66,123 65,122 65,123 64,122"/>
<polyline points="63,100 64,101 63,98 63,97 63,96 62,96"/>
<polyline points="64,98 63,97"/>
<polyline points="62,98 62,99"/>
<polyline points="53,111 53,112 54,112"/>
<polyline points="64,78 64,79 64,80 63,79 63,80"/>
<polyline points="47,66 48,66"/>
<polyline points="68,77 68,78 69,78 70,78 63,83"/>
<polyline points="47,100 48,99 48,100"/>
<polyline points="69,79 69,78"/>
<polyline points="46,141 47,140 47,141"/>
<polyline points="45,131 45,132 45,133 46,133 47,134"/>
<polyline points="60,93 61,92 62,93 63,92"/>
<polyline points="63,103 63,102"/>
<polyline points="44,110 45,110 47,111"/>
<polyline points="47,107 47,108 47,109"/>
<polyline points="59,105 64,106 64,107 63,108 63,107"/>
<polyline points="63,78 62,78"/>
<polyline points="62,47 63,47 64,47"/>
<polyline points="48,80 47,80"/>
<polyline points="62,62 63,62 64,62 64,63"/>
<polyline points="59,66 60,66 60,65"/>
<polyline points="65,63 64,62"/>
<polyline points="61,93 61,92 62,91 63,91 64,90 65,89 64,89"/>
<polyline points="62,92 61,92"/>
<polyline points="63,121 62,121"/>
<polyline points="65,88 66,88 69,85 64,86"/>
<polyline points="63,47 64,48 65,47"/>
<polyline points="51,64 51,65 50,65 49,66 48,65 49,65 47,62"/>
<polyline points="62,93 63,93 64,93 65,93 65,94 64,94"/>
<polyline points="59,110 58,110 58,111"/>
<polyline points="64,75 64,76 64,77 65,77"/>
<polyline points="45,133 45,134 46,133 46,134"/>
<polyline points="65,79 65,80"/>
<polyline points="46,131 46,132 46,133"/>
<polyline points="64,101 65,101"/>
<polyline points="64,102 64,103 64,104 65,104 65,103"/>
<polyline points="32,134 40,125 45,129 45,128 45,130 46,129"/>
<polyline points="64,107 64,108 65,108"/>
<polyline points="65,113 64,106 64,105 65,104 65,105"/>
<polyline points="65,104 65,106 65,107 64,105"/>
<polyline points="45,126 46,126 45,127 46,127"/>
<polyline points="47,106 46,106"/>
<polyline points="45,100 46,100 45,101 46,101"/>
<polyline points="68,123 68,122 67,122 66,121 65,120"/>
<polyline points="44,80 45,80 46,80 46,81"/>
<polyline points="44,78 45,78 44,79 44,78 43,78 46,78"/>
<polyline points="40,76 46,76 43,78"/>
<polyline points="46,79 45,79 45,78"/>
<polyline points="67,91 67,92 67,94 68,94 66,92 66,94 66,95"/>
<polyline points="64,71 65,71 66,71"/>
<polyline points="51,70 52,70 53,70"/>
<polyline points="45,70 46,70 46,71"/>
<polyline points="62,112 62,111 63,111 63,110 64,110 64,111 66,109"/>
<polyline points="65,95 65,96 65,97 65,98 66,98"/>
<polyline points="67,95 67,94 67,93"/>
<polyline points="45,138 46,138 46,137 45,138 45,139"/>
<polyline points="68,101 68,100 68,99 67,99"/>
<polyline points="69,99 70,99 70,100 69,100 69,101 68,100"/>
<polyline points="42,138 45,136"/>
<polyline points="66,73 67,73 68,73 69,73 68,74 68,75 70,71 68,69"/>
<polyline points="72,71 71,72 71,71 70,71"/>
<polyline points="72,70 71,71"/>
<polyline points="72,72 71,72"/>
<polyline points="70,72 69,72 70,73 68,74 69,75 68,75"/>
<polyline points="71,79 70,80 70,79 71,79 70,78 70,79 69,80 68,81"/>
<polyline points="72,82 71,82 72,81 71,81 71,82 70,78"/>
<polyline points="72,80 73,80 74,80 75,79 74,79 71,81"/>
<polyline points="65,90 64,91 64,90 65,90 65,89 66,88 67,88 69,86 68,86 67,86 66,86 66,85 67,85 68,84 67,84 67,83 68,83"/>
<polyline points="67,87 67,88 66,89 66,90 66,88 67,87 66,87 67,85 68,85 69,85 69,86"/>
<polyline points="69,85 69,84 68,84 68,85"/>
<polyline points="68,95 68,94 68,93"/>
<polyline points="68,89 68,90 69,89 69,90 68,94"/>
<polyline points="66,107 67,108"/>
<polyline points="69,102 68,102"/>
<polyline points="44,113 45,112 45,113"/>
<polyline points="64,111 64,112 65,112 67,112 68,110"/>
<polyline points="41,104 41,103 42,103 43,103 44,102 43,104 45,103"/>
<polyline points="44,102 44,103 43,103"/>
<polyline points="44,115 45,115"/>
<polyline points="69,83 69,82 70,81 69,81"/>
<polyline points="45,77 46,77 44,77 45,77 46,76 45,76"/>
<polyline points="43,75 44,74 45,74"/>
<polyline points="70,94 71,94 70,93 69,92"/>
<polyline points="46,69 45,69"/>
<polyline points="69,116 70,117 69,117 69,118 70,118 69,119"/>
<polyline points="70,118 70,117 69,118"/>
<polyline points="70,50 71,51 70,51 73,51 70,49"/>
<polyline points="71,68 70,68 71,67 70,67"/>
<polyline points="66,112 67,113 68,113 69,113 70,112 69,112"/>
<polyline points="69,111 70,111 71,111 70,112 71,112 72,114 70,114 70,113 69,113"/>
<polyline points="71,114 71,113 71,112"/>
<polyline points="72,114 72,113 72,112 71,113"/>
<polyline points="72,79 70,81 70,82"/>
<polyline points="40,126 41,125 41,127 41,128 43,128 44,125"/>
<polyline points="41,131 41,130 41,129 41,128"/>
<polyline points="42,146 43,146 44,146"/>
<polyline points="45,122 44,121 44,122"/>
<polyline points="45,114 44,114"/>
<polyline points="70,100 71,101 71,100 70,100 70,101"/>
<polyline points="69,100 70,102"/>
<polyline points="68,117 68,116 68,115"/>
<polyline points="70,147 69,147 69,146 70,146"/>
<polyline points="70,145 69,146"/>
<polyline points="71,53 71,52"/>
<polyline points="71,63 73,63 72,63 71,63 71,64"/>
<polyline points="87,93 68,92 70,74"/>
<polyline points="71,152 70,152 70,153"/>
<polyline points="70,76 71,76 72,77 71,78"/>
<polyline points="70,83 71,83 71,84 70,85 70,84 71,84 71,85"/>
<polyline points="69,88 68,88 67,88 69,88 71,86"/>
<polyline points="45,65 44,65"/>
<polyline points="69,98 69,97 70,97 71,98"/>
<polyline points="42,105 43,105 44,107 47,105"/>
<polyline points="71,88 70,89 71,89"/>
<polyline points="72,108 72,109 71,109 71,110"/>
<polyline points="70,115 71,115 70,116 71,117"/>
<polyline points="68,128 71,116 70,116"/>
<polyline points="71,119 71,118"/>
<polyline points="39,127 39,128 40,128 40,127 41,125 41,126 42,126 42,127 42,128 43,129 43,130"/>
<polyline points="39,129 39,128"/>
<polyline points="70,96 69,96 69,95 70,95 71,96"/>
<polyline points="44,120 44,119 43,119 43,120 43,121 42,121 43,122"/>
<polyline points="76,48 76,49 77,49 72,47"/>
<polyline points="73,51 72,51 73,52 71,51 72,52 74,53 73,53 72,53 72,54"/>
<polyline points="74,53 73,54 72,53"/>
<polyline points="41,112 41,111 42,111 42,112 41,113 42,113 43,112 43,114"/>
<polyline points="42,114 42,113 42,112"/>
<polyline points="72,67 72,66 73,65 72,65"/>
<polyline points="72,76 71,76 70,77 72,78"/>
<polyline points="72,77 71,77 70,77"/>
<polyline points="74,87 72,87 71,87 70,87 70,88"/>
<polyline points="76,77 74,79"/>
<polyline points="74,86 73,86 72,86"/>
<polyline points="74,152 73,152 73,151 72,151"/>
<polyline points="73,150 74,150 74,151 73,151"/>
<polyline points="70,62 71,62 72,62 71,61 72,61"/>
<polyline points="74,47 74,46 73,47"/>
<polyline points="38,66 37,66 37,65 38,65 38,64 40,65 40,66 41,66 43,66 43,64"/>
<polyline points="73,80 72,81 73,81"/>
<polyline points="42,68 41,67 41,66 42,66 43,67 44,66 43,66"/>
<polyline points="41,65 42,65 42,66"/>
<polyline points="73,121 73,120 74,119 75,119 76,120 71,116 72,116 73,118 73,115"/>
<polyline points="74,115 74,119 74,118 73,118"/>
<polyline points="74,120 75,121 75,120 74,120 74,119 74,121 73,120 74,122 74,123 74,124 74,125 74,126 73,126 73,125"/>
<polyline points="74,125 74,127 74,126"/>
<polyline points="42,67 41,66"/>
<polyline points="43,132 43,133 42,133"/>
<polyline points="37,138 43,134 43,133"/>
<polyline points="70,97 70,95 71,94 72,95 73,95"/>
<polyline points="71,151 70,150 71,149 71,150 72,149 73,149 74,146 73,144"/>
<polyline points="41,126 41,127 42,125"/>
<polyline points="74,75 74,76"/>
<polyline points="73,76 73,77 74,77"/>
<polyline points="42,111 43,110"/>
<polyline points="75,85 74,85"/>
<polyline points="71,84 72,84"/>
<polyline points="42,139 42,140 43,134 42,134"/>
<polyline points="43,140 42,140"/>
<polyline points="71,103 71,104"/>
<polyline points="77,125 77,126 74,132"/>
<polyline points="66,91 66,90 67,89"/>
<polyline points="76,144 76,143 77,138 74,139"/>
<polyline points="77,143 77,142 76,143"/>
<polyline points="78,140 77,142"/>
<polyline points="75,45 76,46 76,45 75,45 75,46"/>
<polyline points="77,140 76,142 76,141 75,142 75,143 74,143"/>
<polyline points="41,137 42,136 42,137 43,136 44,136"/>
<polyline points="44,133 44,134 43,134 43,135 44,135 43,136"/>
<polyline points="75,54 74,54 73,54 75,55"/>
<polyline points="73,65 73,66 73,67 75,67 76,66 75,66"/>
<polyline points="74,63 74,62 73,63 75,63"/>
<polyline points="46,109 45,109 45,110 46,108 45,108 44,109"/>
<polyline points="75,71 75,70 76,70 75,69"/>
<polyline points="75,82 76,81 75,81"/>
<polyline points="43,105 42,106 42,108"/>
<polyline points="74,127 75,127"/>
<polyline points="75,146 74,147 74,146 75,146 75,145"/>
<polyline points="75,42 76,42 76,41"/>
<polyline points="75,119 76,119 77,113 75,109"/>
<polyline points="73,43 74,43 75,43 75,44 76,43"/>
<polyline points="80,54 81,54 82,55 75,57"/>
<polyline points="83,54 82,54 81,54"/>
<polyline points="82,56 81,55 82,55 84,55 82,54"/>
<polyline points="72,115 72,116 72,118 72,119 72,121 72,120"/>
<polyline points="66,76 66,75 65,73"/>
<polyline points="77,121 76,121"/>
<polyline points="77,127 77,128 78,127 77,126 77,127 77,129 76,130"/>
<polyline points="77,128 77,129 78,127 78,128 78,131 77,130 77,131 77,132 78,132 78,133 77,126"/>
<polyline points="71,149 71,147"/>
<polyline points="77,133 77,132"/>
<polyline points="41,68 41,69 41,70"/>
<polyline points="76,124 76,123"/>
<polyline points="77,46 76,46 77,45"/>
<polyline points="73,123 73,124"/>
<polyline points="80,75 79,76 78,76 77,77"/>
<polyline points="81,75 79,76"/>
<polyline points="79,79 80,78 79,78 78,78 79,77 78,77 77,78 77,79"/>
<polyline points="76,60 75,61 75,60 76,60 77,59 77,60"/>
<polyline points="64,95 64,96 64,97"/>
<polyline points="78,99 78,100 78,98 78,99 77,100"/>
<polyline points="79,99 78,100"/>
<polyline points="77,111 77,112"/>
<polyline points="76,114 77,115 76,115 77,116"/>
<polyline points="75,116 76,116 76,117 77,117"/>
<polyline points="78,102 78,103 77,105 77,106 76,108 77,107 77,108"/>
<polyline points="39,134 40,133 40,134 40,135"/>
<polyline points="77,136 77,137 77,138 77,139 76,140"/>
<polyline points="76,72 77,71 76,71 75,72"/>
<polyline points="75,51 76,51 78,51"/>
<polyline points="36,106 37,106 37,107 37,108 38,108 39,108 39,109 40,110"/>
<polyline points="37,108 38,109 38,108"/>
<polyline points="39,110 39,109 40,108 40,109"/>
<polyline points="79,54 78,54"/>
<polyline points="77,67 78,66 78,67 78,68 78,69 78,70"/>
<polyline points="79,64 80,64 79,65 79,64 78,65"/>
<polyline points="81,63 81,64 82,64 80,64 81,64 80,65 79,65"/>
<polyline points="81,65 81,64"/>
<polyline points="79,63 83,64 82,64"/>
<polyline points="76,120 76,119 76,118 77,120 77,119"/>
<polyline points="38,79 37,79 36,79 35,79 39,79 40,79 41,79"/>
<polyline points="38,80 36,79"/>
<polyline points="39,64 39,65 40,65 40,64"/>
<polyline points="37,145 38,145 39,145"/>
<polyline points="36,144 39,144 38,145"/>
<polyline points="77,47 78,47 78,48 79,49"/>
<polyline points="38,142 39,141 39,140"/>
<polyline points="78,103 78,105 78,104"/>
<polyline points="39,131 39,132"/>
<polyline points="80,68 79,68 79,69"/>
<polyline points="74,66 74,67 74,68"/>
<polyline points="73,66 75,64 74,64 77,64 75,67 76,67 75,68 75,67 74,67"/>
<polyline points="77,145 77,146 78,146"/>
<polyline points="76,85 77,85"/>
<polyline points="77,81 77,80 78,80 79,80"/>
<polyline points="79,97 79,95 79,96"/>
<polyline points="80,95 80,94 79,95"/>
<polyline points="78,106 78,105 79,102"/>
<polyline points="41,125 41,124 42,122 41,123 41,122 42,122 40,122 41,121 40,121 40,120 39,120"/>
<polyline points="38,122 39,122 39,123 42,123 42,122"/>
<polyline points="41,124 42,123"/>
<polyline points="39,122 40,123 39,123 39,124 40,125 39,125 39,126"/>
<polyline points="36,113 36,114 36,115 36,116 37,116 38,116 39,116"/>
<polyline points="38,61 39,60 40,61"/>
<polyline points="40,69 40,70"/>
<polyline points="79,130 79,131 79,132"/>
<polyline points="79,134 78,134 78,132 80,129 80,130 79,131"/>
<polyline points="36,81 37,81 38,81 39,81"/>
<polyline points="35,80 36,80 37,80 39,80"/>
<polyline points="37,82 37,81 37,80"/>
<polyline points="35,110 36,109 39,107 39,103"/>
<polyline points="52,124 52,123"/>
<polyline points="78,46 79,47 78,47 80,47 80,45"/>
<polyline points="79,48 78,47"/>
<polyline points="37,62 38,62 38,63 39,62"/>
<polyline points="40,68 39,68"/>
<polyline points="73,50 74,50 75,50 76,50 76,51 79,53 80,52"/>
<polyline points="38,149 39,149 39,148 38,149 38,150"/>
<polyline points="84,62 85,62 86,61 80,60"/>
<polyline points="80,115 80,116 80,114 80,113 79,113"/>
<polyline points="35,148 36,147 38,146"/>
<polyline points="80,69 80,70"/>
<polyline points="81,103 82,103 81,104 81,103 80,103"/>
<polyline points="78,114 78,113 77,114 77,115 77,113 78,112 78,111 78,109 78,107 79,107 80,102"/>
<polyline points="29,114 35,116 33,121 34,121 36,121 38,119"/>
<polyline points="36,109 36,111 38,112"/>
<polyline points="80,130 80,131"/>
<polyline points="39,107 40,107 39,108 39,107 38,107"/>
<polyline points="81,131 81,132 80,133"/>
<polyline points="79,53 78,53"/>
<polyline points="77,115 78,115 78,116"/>
<polyline points="80,112 80,111"/>
<polyline points="82,131 81,132 81,133 80,134"/>
<polyline points="81,134 81,133"/>
<polyline points="79,142 78,143 78,142 79,142 79,143 80,142"/>
<polyline points="85,56 83,57 83,56 82,57 81,57"/>
<polyline points="84,57 84,58 83,58 84,57 84,56 83,56"/>
<polyline points="84,59 83,58"/>
<polyline points="79,141 80,140 79,140 79,141 80,141"/>
<polyline points="81,77 82,76 81,76"/>
<polyline points="78,49 78,50 79,50 80,51"/>
<polyline points="81,110 81,111 81,112 81,114"/>
<polyline points="75,79 75,80"/>
<polyline points="81,124 81,125"/>
<polyline points="81,126 82,126 81,128 81,129"/>
<polyline points="81,48 80,48 79,47 80,47 81,47"/>
<polyline points="37,117 37,118"/>
<polyline points="76,80 76,81 76,82"/>
<polyline points="35,120 35,121 36,121 37,121"/>
<polyline points="37,116 37,114 37,115"/>
<polyline points="83,60 83,59 82,60"/>
<polyline points="82,73 81,74 82,74"/>
<polyline points="83,77 83,76 82,76 82,77"/>
<polyline points="35,97 36,97 36,98 37,98"/>
<polyline points="36,110 37,110"/>
<polyline points="83,103 83,102 82,102 82,103 81,105 82,105"/>
<polyline points="84,103 83,102"/>
<polyline points="39,79 37,78"/>
<polyline points="82,123 82,124 82,125"/>
<polyline points="83,123 82,124"/>
<polyline points="82,132 82,133"/>
<polyline points="79,105 79,106 79,107 79,108 80,107 81,106 81,108 82,107"/>
<polyline points="79,107 80,106 79,106"/>
<polyline points="79,108 80,108 80,107"/>
<polyline points="79,77 82,75"/>
<polyline points="74,65 75,65 76,65 75,64 76,64 77,64 76,63"/>
<polyline points="78,64 77,64"/>
<polyline points="79,114 79,115"/>
<polyline points="79,50 79,51"/>
<polyline points="37,127 37,126 38,126 37,125 36,126"/>
<polyline points="82,46 83,46 84,46 84,47 83,47"/>
<polyline points="82,126 82,127 82,128 83,128 83,127 84,126 83,126"/>
<polyline points="32,120 32,119 33,119 33,118 34,120 36,119"/>
<polyline points="83,128 82,129 83,129"/>
<polyline points="40,133 40,132 40,131"/>
<polyline points="84,64 83,64 80,64 82,65 84,65"/>
<polyline points="82,66 83,66 83,65 82,65"/>
<polyline points="82,113 82,114"/>
<polyline points="83,121 84,120 83,120 83,121 84,121"/>
<polyline points="82,127 84,124"/>
<polyline points="83,48 84,48 84,47 85,49 84,49"/>
<polyline points="34,105 34,106 35,108 36,104"/>
<polyline points="88,50 87,50 86,50 85,50"/>
<polyline points="87,50 88,51 86,50"/>
<polyline points="87,63 88,63 86,63 85,63 86,61 86,60 85,60"/>
<polyline points="86,64 85,63"/>
<polyline points="83,73 84,72 85,72"/>
<polyline points="86,46 85,46 86,47 84,47 85,47"/>
<polyline points="83,55 84,55 85,55 84,54 85,54 86,54"/>
<polyline points="36,125 35,125"/>
<polyline points="35,121 35,122"/>
<polyline points="84,58 85,58 86,57"/>
<polyline points="33,117 34,117 35,117 35,118"/>
<polyline points="84,126 84,127 85,127"/>
<polyline points="89,47 88,47 87,46 87,47"/>
<polyline points="85,49 87,48"/>
<polyline points="86,55 87,56"/>
<polyline points="34,115 34,114 34,113 35,113 35,112"/>
<polyline points="78,135 78,136 78,137 78,138 77,138 78,137 79,137"/>
<polyline points="34,116 35,115 35,114"/>
<polyline points="69,76 69,75 71,74"/>
<polyline points="33,105 33,104 33,103 33,102 33,104 35,103"/>
<polyline points="34,103 33,104"/>
<polyline points="34,102 33,102"/>
<polyline points="90,65 89,65 89,64 88,64"/>
<polyline points="82,103 82,104"/>
<polyline points="33,99 34,99 34,100 35,100"/>
<polyline points="36,97 35,98 35,99 34,100"/>
<polyline points="85,62 87,62 86,62 86,61 87,61 88,61 89,61 90,61"/>
<polyline points="39,141 39,142 40,142 39,143 39,144 36,148 37,147 37,148 38,147 36,147 37,146 36,146 35,147 34,147"/>
<polyline points="82,55 87,59 89,60"/>
<polyline points="34,129 34,130"/>
<polyline points="34,121 33,122 34,122"/>
<polyline points="33,119 34,119"/>
<polyline points="87,58 88,58 88,59 79,66 90,74"/>
<polyline points="89,63 88,63 90,62"/>
<polyline points="33,110 33,108 34,107 35,108 35,107"/>
<polyline points="90,64 90,63 92,63 92,64 91,64"/>
<polyline points="94,63 93,63 92,63"/>
<polyline points="94,64 93,63"/>
<polyline points="93,59 93,60 94,60"/>
<polyline points="92,56 91,56"/>
<polyline points="92,65 93,64"/>
<polyline points="77,122 77,123 77,124 78,125 78,124 78,123 79,124 79,125"/>
<polyline points="85,58 86,59 87,59 90,58 89,56"/>
<polyline points="92,57 93,56 94,56 94,57 93,58"/>
<polyline points="94,55 95,55 94,54 95,54"/>
<polyline points="30,80 31,80 30,79 33,79 34,80"/>
<polyline points="94,57 96,56 96,57 95,57"/>
<polyline points="95,55 96,55 95,56 96,56"/>
<polyline points="92,58 93,57 95,58 97,57 95,56"/>
<polyline points="95,60 96,60 96,59 95,59"/>
<polyline points="92,64 95,64"/>
<polyline points="97,43 97,44 96,44 96,45"/>
<polyline points="96,60 96,61"/>
<polyline points="35,81 34,81"/>
<polyline points="95,63 96,63"/>
<polyline points="103,55 104,55 99,53"/>
<polyline points="100,66 97,59 96,59 97,58 98,58 100,59 99,57"/>
<polyline points="102,57 103,57 104,57 104,58 105,58 107,59 106,59 97,59"/>
<polyline points="97,55 98,55 99,55"/>
<polyline points="105,57 104,58"/>
<polyline points="102,54 103,54 104,54 104,55 105,59 105,58"/>
<polyline points="106,60 105,59"/>
<polyline points="93,65 94,65 95,65"/>
<polyline points="100,52 99,51 100,51 99,50 99,49 100,49"/>
<polyline points="100,48 100,50 99,49"/>
<polyline points="96,59 98,59 98,58 99,59 99,58 100,58"/>
<polyline points="103,61 103,60 102,60 102,59 101,59 100,59 99,58"/>
<polyline points="101,61 100,61 100,60 99,59"/>
<polyline points="24,151 25,151 26,150 26,151 27,151 28,151 29,151 30,151 30,152 31,152 32,152"/>
<polyline points="89,51 90,51 90,52"/>
<polyline points="104,59 105,60 104,60 104,59 103,59 104,60 102,60 104,59 100,57"/>
<polyline points="105,61 104,61 102,60"/>
<polyline points="30,151 33,149 32,148"/>
<polyline points="101,47 103,51 102,51 103,52 102,52 102,51 102,50 101,50"/>
<polyline points="104,53 103,53 102,51"/>
<polyline points="29,152 29,151"/>
<polyline points="83,50 84,51"/>
<polyline points="106,49 105,49 104,48 105,48 105,47 104,47"/>
<polyline points="101,60 100,59"/>
<polyline points="105,55 104,55 105,56 104,56 103,56"/>
<polyline points="32,104 32,105"/>
<polyline points="103,62 104,62 104,63"/>
<polyline points="105,50 106,51 106,50 105,50 105,51"/>
<polyline points="64,114 64,115 64,116 64,117 65,116 65,117"/>
<polyline points="28,153 29,153 30,153 31,153"/>
<polyline points="32,153 31,152 30,153"/>
<polyline points="107,55 108,55 107,54 107,53 106,53"/>
<polyline points="64,116 65,115 65,116"/>
<polyline points="29,127 30,127 31,128 32,128 31,127"/>
<polyline points="28,120 30,123 27,125 28,125 29,126 31,126"/>
<polyline points="105,63 106,63 106,64"/>
<polyline points="106,47 107,47"/>
<polyline points="31,110 32,110 32,112 32,113"/>
<polyline points="110,54 108,53 108,52 107,52 107,51 106,51 107,50"/>
<polyline points="105,56 106,56"/>
<polyline points="105,62 106,62 106,63 107,63"/>
<polyline points="107,64 106,63"/>
<polyline points="30,152 32,151 31,151 31,150 30,150"/>
<polyline points="110,52 110,53 109,52 108,51"/>
<polyline points="108,64 108,63"/>
<polyline points="31,123 32,123 31,124 31,123 30,123 29,123 30,124"/>
<polyline points="32,122 32,123 32,124 31,124"/>
<polyline points="80,116 80,117"/>
<polyline points="110,55 109,55 108,54 109,54"/>
<polyline points="30,76 30,77"/>
<polyline points="29,153 29,154"/>
<polyline points="109,60 110,61 110,60 109,60 108,60 107,60 107,59 107,58"/>
<polyline points="109,67 111,62 111,61 110,60"/>
<polyline points="27,124 28,124 30,125"/>
<polyline points="28,152 28,151 29,150"/>
<polyline points="109,62 110,62 111,63"/>
<polyline points="80,129 80,125"/>
<polyline points="111,59 111,60 112,61 110,61 110,62 110,63"/>
<polyline points="113,61 112,61 111,62 110,62"/>
<polyline points="111,77 111,76 111,75 112,75"/>
<polyline points="111,60 112,60"/>
<polyline points="104,51 104,52"/>
<polyline points="112,62 111,62 112,63 113,64 113,62"/>
<polyline points="114,66 113,65 114,65 115,65 116,65 116,66 111,62"/>
<polyline points="117,66 116,66"/>
<polyline points="115,64 116,64 116,65"/>
<polyline points="28,148 28,147"/>
<polyline points="112,64 112,63 113,63"/>
<polyline points="26,123 27,123 28,123 28,124 28,125 29,125 28,126"/>
<polyline points="112,77 112,76 111,76 112,77 114,77 113,77 113,78 113,79"/>
<polyline points="29,126 29,125"/>
<polyline points="32,79 33,79 33,78"/>
<polyline points="114,64 114,65 114,63"/>
<polyline points="31,119 30,120 31,120"/>
<polyline points="117,73 117,72 118,71 118,72 119,72 117,69 114,70"/>
<polyline points="115,66 115,65 116,63 115,61"/>
<polyline points="117,59 116,59 116,60 115,60"/>
<polyline points="116,57 117,57 117,58 117,60 116,59"/>
<polyline points="26,149 27,149"/>
<polyline points="115,68 114,67 114,68"/>
<polyline points="28,129 28,128 27,128"/>
<polyline points="114,78 115,78 116,78 115,77 116,77 115,76"/>
<polyline points="26,153 26,154"/>
<polyline points="117,75 117,76 118,74 116,74"/>
<polyline points="28,127 27,127"/>
<polyline points="26,151 27,150"/>
<polyline points="117,56 117,55 118,55"/>
<polyline points="117,62 117,61 118,60"/>
<polyline points="119,59 118,61 117,61"/>
<polyline points="119,61 120,61 119,62 119,61 118,61"/>
<polyline points="115,79 116,79 117,79"/>
<polyline points="118,76 118,77"/>
<polyline points="119,78 118,78"/>
<polyline points="108,61 108,62"/>
<polyline points="24,127 24,128"/>
<polyline points="121,62 120,62 120,61 120,60 119,60"/>
<polyline points="23,124 22,124 22,123 23,124 23,125 24,126"/>
<polyline points="23,127 23,126 23,125"/>
<polyline points="24,122 25,124 22,123"/>
<polyline points="25,124 24,124 23,123 24,123"/>
<polyline points="118,71 119,70"/>
<polyline points="119,73 119,72 119,71"/>
<polyline points="120,70 120,71 119,72"/>
<polyline points="115,78 116,77 117,77 117,76 118,75 119,75"/>
<polyline points="119,76 117,76"/>
<polyline points="28,78 29,78 30,78"/>
<polyline points="119,77 120,77 121,77 120,76 121,76 122,76"/>
<polyline points="121,76 121,77"/>
<polyline points="122,69 122,70 121,70"/>
<polyline points="120,72 120,71 121,71 122,71 123,70 122,70"/>
<polyline points="20,122 20,121 21,121"/>
<polyline points="21,123 21,122 20,121"/>
<polyline points="22,121 21,122"/>
<polyline points="120,78 121,78"/>
<polyline points="21,117 20,117 21,118"/>
<polyline points="21,119 20,120 19,119 20,119"/>
<polyline points="122,73 122,74"/>
<polyline points="116,68 117,68 118,69 118,68 119,68"/>
<polyline points="117,67 117,68"/>
<polyline points="121,60 122,60"/>
<polyline points="76,134 76,136 76,135 76,134"/>
<polyline points="119,74 118,75 118,74 119,74"/>
<polyline points="91,58 90,59 90,58 91,58"/>
<polyline points="60,66 61,67 60,67 60,66"/>
<polyline points="42,128 42,129 43,129"/>
<polyline points="54,62 54,63 55,62 55,63 58,61 59,62"/>
<polyline points="65,49 66,49 68,50"/>
<polyline points="56,58 57,57"/>
<polyline points="76,52 76,51"/>
<polyline points="77,49 76,51"/>
<polyline points="47,72 48,71 49,71 50,70"/>
<polyline points="48,71 48,70 50,71 49,71"/>
<polyline points="49,70 48,69 49,69 48,70"/>
<polyline points="57,92 58,92"/>
<polyline points="73,119 72,118 72,117 72,116"/>
<polyline points="73,117 72,116"/>
<polyline points="78,144 79,144"/>
<polyline points="33,149 34,149 33,150 33,149"/>
<polyline points="66,49 67,50 67,49 66,49"/>
<polyline points="65,50 66,50 67,50"/>
<polyline points="67,51 66,50"/>
<polyline points="69,50 68,50 67,49"/>
<polyline points="40,147 39,148 41,147 41,146 40,146 38,147 38,148 39,147 40,147"/>
<polyline points="117,70 118,70"/>
<polyline points="82,110 82,111"/>
<polyline points="39,61 39,60"/>
<polyline points="40,60 39,60"/>
<polyline points="45,141 46,140"/>
<polyline points="58,90 59,93 58,93 58,92 58,91 58,90"/>
<polyline points="83,66 85,66 84,66 83,66"/>
<polyline points="27,151 27,152 26,152 27,151"/>
<polyline points="66,105 66,106"/>
<polyline points="53,118 55,116"/>
<polyline points="73,147 73,148"/>
<polyline points="34,106 34,107 34,108 35,108"/>
<polyline points="35,108 35,109 34,109 34,108"/>
<polyline points="29,129 30,129 31,130"/>
<polyline points="30,128 32,129 31,128 30,128 30,129"/>
<polyline points="41,142 40,143 40,144"/>
<polyline points="40,144 41,143 40,143"/>
<polyline points="54,116 54,117"/>
<polyline points="49,65 50,66"/>
<polyline points="61,94 62,94"/>
<polyline points="73,68 73,67"/>
<polyline points="73,69 73,67"/>
<polyline points="83,62 82,63"/>
<polyline points="83,63 82,63"/>
<polyline points="69,150 69,149 69,148"/>
<polyline points="94,58 95,58"/>
<polyline points="25,125 26,125 26,124 25,125"/>
<polyline points="43,112 44,112"/>
<polyline points="54,115 55,115"/>
<polyline points="48,126 49,124"/>
<polyline points="73,149 74,148 73,148 73,149"/>
<polyline points="53,132 54,131 53,131 53,132"/>
<polyline points="119,64 120,65 119,65 119,64"/>
<polyline points="86,52 86,51 85,52 85,51 86,51"/>
<polyline points="56,116 55,115 55,116 55,117 55,118 54,117 55,117"/>
<polyline points="46,67 47,67"/>
<polyline points="43,107 44,107 44,108 43,108 43,107 44,106 43,106 43,107"/>
<polyline points="58,57 57,57"/>
<polyline points="45,129 45,130"/>
<polyline points="47,132 48,131"/>
<polyline points="64,76 65,76"/>
<polyline points="65,75 65,76"/>
<polyline points="53,61 53,60"/>
<polyline points="70,149 70,148 69,148 70,149"/>
<polyline points="67,113 67,112"/>
<polyline points="65,114 65,112"/>
<polyline points="72,88 73,88"/>
<polyline points="42,70 42,69"/>
<polyline points="84,120 85,119"/>
<polyline points="43,129 43,128"/>
<polyline points="79,144 78,145"/>
<polyline points="74,150 75,150"/>
<polyline points="82,111 82,112"/>
<polyline points="117,64 117,63"/>
<polyline points="60,119 60,118"/>
<polyline points="72,111 72,110 72,109"/>
<polyline points="79,55 80,55"/>
<polyline points="51,66 50,66"/>
<polyline points="64,110 64,109"/>
<polyline points="33,106 33,107"/>
<polyline points="44,111 44,112"/>
<polyline points="97,44 97,45"/>
<polyline points="44,67 43,67"/>
<polyline points="48,139 47,140 48,140"/>
<polyline points="81,107 81,108 81,109"/>
<polyline points="74,111 73,111"/>
<polyline points="84,48 85,48"/>
<polyline points="72,94 71,94"/>
<polyline points="39,149 40,149"/>
<polyline points="28,77 29,77"/>
<polyline points="76,125 76,126"/>
<polyline points="77,70 77,71"/>
<polyline points="41,107 40,108"/>
<polyline points="81,66 80,66 78,67"/>
<polyline points="32,112 32,111"/>
<polyline points="57,95 56,95"/>
<polyline points="48,77 48,76"/>
<polyline points="78,79 78,80"/>
<polyline points="78,81 78,80"/>
<polyline points="62,94 62,95"/>
<polyline points="31,130 30,130 30,129"/>
<polyline points="38,126 38,125"/>
<polyline points="63,104 63,105"/>
<polyline points="95,58 96,58"/>
<polyline points="77,50 76,50"/>
<polyline points="50,69 50,70"/>
<polyline points="67,105 66,106"/>
<polyline points="46,140 46,139"/>
<polyline points="36,149 36,150 37,150"/>
<polyline points="44,107 44,106 44,105"/>
<polyline points="79,123 79,122"/>
<polyline points="50,61 49,62"/>
<polyline points="50,62 49,62"/>
<polyline points="80,140 81,140"/>
<polyline points="54,113 54,114 55,113"/>
<polyline points="118,69 118,70"/>
<polyline points="49,124 50,123"/>
<polyline points="36,122 37,122"/>
<polyline points="87,60 88,60 87,61"/>
<polyline points="47,67 47,68"/>
<polyline points="60,99 60,100"/>
<polyline points="97,47 97,46"/>
<polyline points="98,47 97,46"/>
<polyline points="120,65 120,64 120,63"/>
<polyline points="59,93 59,92 58,91 59,91 59,93 59,94"/>
<polyline points="36,112 36,111"/>
<polyline points="35,117 35,116"/>
<polyline points="103,50 103,51"/>
<polyline points="44,139 44,138"/>
<polyline points="32,110 33,109 32,109 32,108"/>
<polyline points="123,72 124,71"/>
<polyline points="124,72 124,71"/>
<polyline points="52,126 52,125"/>
<polyline points="59,62 60,62"/>
<polyline points="57,73 58,73"/>
<polyline points="100,50 101,51"/>
<polyline points="75,52 74,52"/>
</svg>
