<svg xmlns="http://www.w3.org/2000/svg"
	width="100px" height="100px"
	viewBox="50 50 100 100"
	xmlns:xlink="http://www.w3.org/1999/xlink">
<defs><style type="text/css"><![CDATA[
polyline { stroke:#000000; fill:none; stroke-width: 1 }
]]></style></defs>
<polyline points="50,99 51,99 51,100 50,100 50,99"/>
<polyline points="51,99 52,99 52,98 51,99"/>
<polyline points="51,100 52,101 52,100 51,100"/>
<polyline points="52,98 53,98 52,99 53,100 52,100 53,101 54,102 55,102 56,102 57,103 58,104 59,104 60,105 61,105 62,106 63,106 64,107 65,107 66,108 67,108 68,109 69,109 70,109 71,110 72,110 73,110 73,109"/>
<polyline points="52,101 53,101 54,100 55,100 56,101 56,102 57,102 58,102 59,103 59,104 60,104 60,103 61,104 62,104 61,105 62,105 62,106"/>
<polyline points="61,104 61,103 60,103"/>
<polyline points="58,102 59,102 59,101 58,102 58,101 59,101 60,101 60,100 61,100 61,101 62,102 62,103 61,103"/>
<polyline points="60,101 60,102 61,102 62,102"/>
<polyline points="55,101 56,101 55,102 55,101 55,100"/>
<polyline points="56,102 56,103 55,102"/>
<polyline points="52,99 53,99 53,98 54,99 55,99 56,100 55,100"/>
<polyline points="53,99 53,100 53,101"/>
<polyline points="62,106 63,105 64,105 65,106 65,107 66,107 67,107 67,108"/>
<polyline points="69,109 70,108 69,108 69,109 70,110 71,110 72,111 73,111 74,111 75,112 76,113 77,113 78,114 79,114 80,115 81,115 82,115 82,114 83,115 84,116 85,117 86,118 87,118 88,118 89,119 90,120 91,120 92,121 93,121 94,122 95,122 96,123 97,123 98,124 99,124 100,125 101,125 102,125 103,126 104,127 105,127 106,127 107,128 108,129 109,129 110,130 111,130 112,131 113,131 114,132 115,132 116,133 117,133 118,134 119,134 120,134 121,135 122,136 123,136 124,136 125,137 126,138 127,138 128,139 129,139 130,140 131,140 132,140 132,139 133,140 134,141 135,142 136,143 137,143 138,143 139,144 140,145 141,145 142,146 143,146 144,146 145,146 145,145 146,145 147,145 147,144 148,145 148,146"/>
<polyline points="70,110 70,109 70,108 71,108 71,107 72,108 73,108 74,108 74,109 73,109 74,110 73,110 73,111 74,112 75,112 76,111 77,112 77,113 78,113 79,113 80,113 81,114 81,115 82,116 83,116 83,115 83,114 82,114"/>
<polyline points="84,113 85,114 85,113 84,113 84,114 84,115 83,115 84,114 83,114"/>
<polyline points="74,112 74,111 75,111 75,112 76,112 76,111 77,111 78,110 79,110 80,109 81,109 82,109 82,110 83,109 84,110 84,111 85,111 86,111 86,112 86,113 85,113"/>
<polyline points="71,107 72,107 73,107 73,106 74,106 75,107 74,108 75,108 74,109 75,109 75,110 74,110 74,109 75,110 74,111"/>
<polyline points="73,108 73,107 74,107 73,106"/>
<polyline points="119,134 120,133 119,133 119,134 120,135 121,135 122,135 123,135 123,136 124,137 125,137 126,136 127,137 127,138 128,138 129,138 130,138 131,139 131,140 132,141 133,141 133,140 133,139 132,139"/>
<polyline points="134,138 135,139 135,138 134,138 134,139 134,140 133,140 134,139 133,139"/>
<polyline points="124,137 124,136 125,136 125,137 126,137 126,136 127,136 128,135 129,135 130,134 131,134 132,134 132,135 133,134 134,135 134,136 135,136 136,136 136,137 136,138 135,138"/>
<polyline points="123,134 124,135 123,135 123,134 124,134 125,135 124,136"/>
<polyline points="141,145 142,145 142,144 141,145 141,144 142,144 143,145 143,146 144,147 145,146 146,146 145,145"/>
<polyline points="147,145 148,145 148,144 147,144"/>
<polyline points="126,137 126,138 127,137 127,136 128,136 129,136 129,135 130,135 130,134 131,135 131,134 132,133 133,133 133,134 133,135 132,135"/>
<polyline points="127,137 128,137 127,136"/>
<polyline points="134,140 134,141 133,141 134,142 135,142 136,142 137,142 137,143 138,144 138,143 139,142 140,142 141,141 142,141 143,140 144,140 145,141 146,141 146,142 147,142 148,142 148,143 149,143 149,144 148,144"/>
<polyline points="139,142 139,143 138,143"/>
<polyline points="71,108 71,109 70,109"/>
<polyline points="146,142 147,141 148,141 148,142 149,142 148,143"/>
<polyline points="82,110 83,110 84,110 85,110 84,111"/>
<polyline points="133,135 134,135 135,135 134,136"/>
<polyline points="127,138 128,137 128,138"/>
<polyline points="76,112 76,113 77,112 77,111 78,112 78,113"/>
<polyline points="78,110 78,111 77,111"/>
<polyline points="77,112 78,112 78,111 79,111 79,110"/>
<polyline points="80,110 81,110 80,109 80,110 79,110"/>
<polyline points="79,113 79,114"/>
<polyline points="84,115 84,116 83,116"/>
<polyline points="84,117 85,117 85,116 84,116 84,117 83,116"/>
<polyline points="84,114 85,114 86,115 87,115 86,116 85,116"/>
<polyline points="85,114 86,114 87,114 87,115 87,116 86,116"/>
<polyline points="134,142 134,141"/>
<polyline points="135,142 135,141 134,141"/>
<polyline points="134,139 135,139 136,140 137,140 136,141 135,141"/>
<polyline points="135,139 136,139 137,139 137,140 137,141 136,141"/>
<polyline points="98,123 98,124 99,123 99,122 98,122 98,123 97,123 98,122 99,123 99,124 100,124 101,124 102,123 103,123 104,122 105,122 106,121 107,121 108,120 109,120 110,119 111,119 112,118 113,118 114,117 115,117 116,116 117,116 118,115 119,115 120,114 121,114 122,113 123,113 124,112 125,112 126,111 127,111 128,110 129,110 130,109 131,109 132,108 133,108 134,107 135,107 136,106 137,106 138,106 139,107 140,107 141,108 142,108 143,109 144,109 145,109 146,110 147,110 148,110 148,109"/>
<polyline points="101,124 102,124 103,125 102,125 102,126 101,125 101,124"/>
<polyline points="102,123 102,124 103,124 103,125"/>
<polyline points="144,109 145,108 144,108 144,109 145,110 146,110 147,111 148,111 148,110"/>
<polyline points="145,110 145,109 145,108 146,108 146,107 147,108 148,108 149,108 149,109 148,109 149,110 148,110"/>
<polyline points="146,108 146,109 145,109"/>
<polyline points="147,108 147,107 146,107"/>
<polyline points="119,115 120,116 119,116 119,115 120,115 121,114 122,114 123,114 123,113 124,113 125,112 126,112 126,111 127,112 127,111 128,111 129,111 129,110 130,110 130,109 131,110 131,109 132,109 132,110 133,109 133,108 134,108 135,107 136,107 137,107 137,106 138,105 139,105 140,104 141,104 142,103 143,103 144,102 145,103 145,104 146,104 147,104 147,105 148,105 149,105 149,106 148,106 148,107 147,107"/>
<polyline points="124,112 124,113 125,113 125,112 126,113 127,112 128,112 127,111"/>
<polyline points="147,104 148,104 147,105"/>
<polyline points="141,104 142,105 141,105 141,104 142,104 143,104 143,103 144,103 145,103 146,103 145,104"/>
<polyline points="148,108 148,107 149,107 148,106"/>
<polyline points="134,107 134,108 133,109 133,110 132,110"/>
<polyline points="133,110 134,110 133,109 134,109 134,108"/>
<polyline points="135,107 135,108 134,108"/>
<polyline points="102,124 103,123 104,124 105,124 105,123 105,122 106,122 107,121 108,121 108,120 109,121 109,120 110,120 110,121 111,120 112,120 111,119 112,119 112,118 113,119 113,118 114,118 115,118 115,117 116,117 116,116"/>
<polyline points="116,117 117,117 116,116"/>
<polyline points="111,120 111,121 110,121"/>
<polyline points="105,122 106,123 105,123"/>
<polyline points="113,119 114,119 113,118"/>
<polyline points="138,105 138,106 139,105 140,106 140,107"/>
<polyline points="138,106 139,106 140,106"/>
<polyline points="140,104 140,105 139,105 139,106"/>
<polyline points="112,119 112,120"/>
<polyline points="103,124 103,123"/>
<polyline points="104,122 104,123 103,123"/>
<polyline points="148,105 148,104 149,103 148,103 148,104 149,104 150,105 149,106 149,107"/>
<polyline points="144,103 144,102 145,102 146,101 147,101 148,102 149,102 150,103 149,104 150,104 150,105 149,105 149,104 149,103"/>
<polyline points="148,101 148,102 149,101 149,100 148,100 148,101 147,101 148,100 149,101 149,102 150,102 150,103 149,103"/>
<polyline points="114,117 114,118"/>
<polyline points="120,114 120,115 120,116"/>
<polyline points="148,111 149,112 149,111 148,111"/>
<polyline points="150,105 150,106 149,106 150,107 149,108 150,108 149,109 150,109 150,110 149,110 149,109 150,110 149,111"/>
<polyline points="149,107 150,107 150,108"/>
<polyline points="85,117 86,117 87,117 87,118"/>
<polyline points="142,146 142,145"/>
<polyline points="138,144 139,144 139,143 140,143 140,142 141,142 141,141 142,142 142,143 143,143 142,144 143,144 143,145 142,145"/>
<polyline points="114,118 114,119 115,118"/>
<polyline points="115,118 115,119 114,119"/>
<polyline points="115,119 115,120 114,119"/>
<polyline points="91,120 92,120 92,119 91,120 91,119 92,119 93,120 93,121 94,121 95,121 95,122"/>
<polyline points="94,121 94,122"/>
<polyline points="146,145 146,146"/>
<polyline points="126,112 126,113 127,113 128,114 129,114 130,115 131,115 132,115 132,114 133,115 134,116 135,117 136,118 137,118 138,118 139,117 140,117 141,116 142,116 143,115 144,115 145,116 146,116 146,117 147,117 148,117 148,118"/>
<polyline points="127,112 127,113 128,113 129,113 130,113 131,114 131,115 132,116 133,116 133,115 133,114 132,114"/>
<polyline points="134,113 135,114 135,113 134,113 134,114 134,115 133,115 134,114 133,114"/>
<polyline points="134,109 134,110 134,111 135,111 136,111 136,112 136,113 135,113"/>
<polyline points="134,110 135,110 134,111"/>
<polyline points="147,117 147,116 146,117"/>
<polyline points="148,116 149,116 150,117 149,117 149,118 148,118 149,117 148,117 148,116 147,116"/>
<polyline points="144,115 145,115 145,116 144,116 144,115 145,114 146,114 147,114 148,114 148,115 149,115 149,116"/>
<polyline points="145,114 145,115 146,114 147,113 148,113 148,114 149,114 148,115"/>
<polyline points="129,113 129,114 130,114 130,115"/>
<polyline points="134,115 134,116 133,116"/>
<polyline points="134,117 135,117 135,116 134,116 134,117 133,116"/>
<polyline points="134,114 135,114 136,115 137,115 136,116 135,116"/>
<polyline points="135,114 136,114 137,114 137,115 137,116 136,116"/>
<polyline points="135,117 136,117 137,117 137,118 138,119 138,118 139,118 140,118 140,117"/>
<polyline points="138,119 139,119 138,118"/>
<polyline points="141,117 142,117 141,116 141,117 140,117"/>
<polyline points="139,117 139,118"/>
<polyline points="134,132 134,133 134,134 133,134 134,133 133,133 134,132 135,132 136,131 137,131 138,131 139,132 140,132 141,133 142,133 143,134 144,134 144,133 145,133 146,133 146,132 147,132 148,132 148,131"/>
<polyline points="147,132 147,133 146,132"/>
<polyline points="147,133 148,133 148,132"/>
<polyline points="135,132 135,133 134,133 135,132 136,132 137,132 137,131 138,130 139,130 140,129 141,129 142,128 143,128 144,127 145,128 145,129 146,129 147,129 147,130 148,130 149,130 149,131 148,131 149,132 148,132"/>
<polyline points="141,129 142,130 141,130 141,129 142,129 143,129 143,128 144,128 145,128 146,128 145,129"/>
<polyline points="147,129 148,129 147,130"/>
<polyline points="148,130 148,129 149,128 148,128 148,129 149,129 150,130 149,131 149,132"/>
<polyline points="144,128 144,127 145,127 146,126 147,126 148,127 149,127 150,128 149,129 150,129 150,130 149,130 149,129 149,128"/>
<polyline points="148,126 148,127 149,126 149,125 148,125 148,126 147,126 148,125 149,126 149,127 150,127 150,128 149,128"/>
<polyline points="142,128 142,129"/>
<polyline points="63,105 63,106 64,105 65,104 66,104 67,103 68,103 69,102 70,103 70,104 71,104 72,104 72,105 73,105 74,105 74,106 74,107"/>
<polyline points="72,104 73,104 72,105"/>
<polyline points="66,104 67,105 66,105 66,104 67,104 68,104 68,103 69,103 70,103 71,103 70,104"/>
<polyline points="69,103 69,102 70,102 71,102 71,103"/>
<polyline points="70,103 70,102"/>
<polyline points="71,102 71,101 70,102"/>
<polyline points="73,101 73,102 72,101 73,101 73,100 72,101 71,101"/>
<polyline points="73,102 74,102 74,101 74,100 73,100 74,101 73,102"/>
<polyline points="54,97 54,98 53,98 54,97 55,97 56,96 57,96 58,95 59,95 60,94 61,94 62,93 63,93 64,94 65,95 66,95 67,96 68,96 69,97 70,97 71,98 72,98 73,99 74,99 75,100 74,100 75,101 74,101"/>
<polyline points="72,98 73,98 73,97 72,98"/>
<polyline points="66,95 67,95 67,94 66,95 66,94 67,94 68,95 68,96"/>
<polyline points="67,96 67,95"/>
<polyline points="55,97 56,98 55,99 55,98 55,97 56,97 57,96 58,96 58,95 59,96 59,95 60,95 60,96 61,95 62,95 61,94 62,94 62,93 63,94 63,93 64,92 65,92 66,91 67,92 67,93 68,93 67,94 68,94 68,95 67,95"/>
<polyline points="56,96 56,97 56,98 55,98"/>
<polyline points="61,95 61,96 60,96"/>
<polyline points="64,92 64,93 63,93"/>
<polyline points="56,98 56,99 55,99"/>
<polyline points="63,94 64,94 64,93 65,93 65,92 66,92 66,91"/>
<polyline points="66,92 67,92 67,91 66,91"/>
<polyline points="73,105 73,104 74,103 73,103 73,104 74,104 75,105 74,106"/>
<polyline points="73,98 73,99 74,98 74,97 73,97 74,98 74,99 75,99 75,100 75,101 74,102 75,103 74,103 74,104 74,105 75,105 75,106 74,106"/>
<polyline points="75,101 75,102 74,102"/>
<polyline points="75,102 75,103 74,104"/>
<polyline points="75,103 75,104 74,104"/>
<polyline points="68,96 69,96 70,96 70,97"/>
<polyline points="63,106 64,106 64,105"/>
<polyline points="65,104 65,105 64,105"/>
<polyline points="64,107 64,106"/>
<polyline points="65,105 65,106 64,106"/>
<polyline points="69,96 69,97"/>
<polyline points="102,126 103,126 104,125 105,125 106,126 106,127 107,127 108,127 109,128 109,129"/>
<polyline points="103,125 103,126"/>
<polyline points="105,126 106,126 105,127 105,126 105,125"/>
<polyline points="106,121 106,122 106,123 105,124 106,125 105,125"/>
<polyline points="106,123 106,124 105,124"/>
<polyline points="106,127 106,128 105,127"/>
<polyline points="148,146 149,146 148,145 149,145 149,144"/>
<polyline points="148,141 149,141 150,142 149,142 149,143 150,144 149,144"/>
<polyline points="144,140 145,140 145,141 144,141 144,140 145,139 146,139 147,139 148,139 148,140 149,140 149,141"/>
<polyline points="145,139 145,140 146,139 147,138 148,138 148,139 149,139 148,140"/>
<polyline points="139,118 139,119 140,118"/>
<polyline points="140,118 140,119 139,119"/>
<polyline points="140,119 140,120 139,119"/>
<polyline points="115,120 116,120 116,119 117,119 118,118 117,118 117,117 117,116"/>
<polyline points="118,115 118,116 117,116"/>
<polyline points="118,116 118,117 117,117"/>
<polyline points="145,133 145,134 144,134 145,133"/>
<polyline points="146,133 146,134 145,134 145,135 144,134"/>
<polyline points="145,135 146,135 145,134"/>
<polyline points="64,94 65,94 65,93 64,94"/>
<polyline points="66,107 66,108"/>
<polyline points="79,111 80,111 81,110 81,109"/>
<polyline points="82,109 82,108 81,109"/>
<polyline points="83,110 83,109 83,108 82,108"/>
<polyline points="62,103 62,104"/>
<polyline points="106,128 107,128 108,128 108,129"/>
<polyline points="69,97 70,96 70,95 71,95 72,95 72,94 73,95 74,95 75,96 74,97"/>
<polyline points="72,95 73,95 73,94 72,94"/>
<polyline points="68,90 68,91 67,91 68,90 69,90 70,91 71,91 71,92 72,92 73,92 73,93 74,93 74,94 73,94"/>
<polyline points="71,92 72,91 73,91 73,92 74,92 73,93"/>
<polyline points="70,96 71,96 70,95"/>
<polyline points="71,95 71,96"/>
<polyline points="69,90 70,90 70,89 69,90 69,91 70,91"/>
<polyline points="70,91 70,90 71,89 70,89"/>
<polyline points="71,89 72,89 72,88 71,89 71,90 70,90"/>
<polyline points="72,89 73,89 73,88 72,88"/>
<polyline points="73,89 74,89 73,90 73,89"/>
<polyline points="74,87 75,87 74,88 74,87 73,88 74,88 75,89 74,89 74,90 73,90"/>
<polyline points="76,87 76,88 75,87 76,87 76,86 75,87 75,88 74,88"/>
<polyline points="76,88 77,88 77,87 77,86 76,86 77,87 76,88"/>
<polyline points="77,86 78,86 78,85 77,86 78,87 77,87"/>
<polyline points="78,87 78,88 77,88 78,87 78,86 79,86 79,85 78,85"/>
<polyline points="78,89 79,89 79,88 78,88 78,89 77,88"/>
<polyline points="79,86 80,86 80,87 80,88 79,88"/>
<polyline points="79,89 80,90 80,89 79,89"/>
<polyline points="80,85 81,85 81,84 80,84 80,85 79,85 80,84 81,85 80,86 81,87 80,88 81,89 80,89"/>
<polyline points="80,87 81,87 81,88 80,88"/>
<polyline points="81,85 81,86 80,86"/>
<polyline points="81,88 81,89 80,90"/>
<polyline points="81,89 81,90 80,90"/>
<polyline points="82,89 83,90 83,89 82,89 82,90 81,90"/>
<polyline points="82,90 82,91 81,90"/>
<polyline points="82,91 83,91 83,90 84,89 83,89"/>
<polyline points="84,88 85,89 85,88 84,88 84,89 84,90 83,90 84,91 83,91"/>
<polyline points="84,90 84,91 84,92 83,91"/>
<polyline points="82,84 82,83 81,84 82,84 82,85 83,84 84,85 84,86 85,86 86,86 86,87 86,88 85,88"/>
<polyline points="82,85 83,85 83,84 83,83 82,83"/>
<polyline points="83,85 84,85 85,85 84,86"/>
<polyline points="84,92 85,92 85,91 84,91 85,92 86,93 87,93 88,93 89,94 90,95 91,95 91,94"/>
<polyline points="85,92 86,92 87,92 87,93 88,94 88,93 89,92 90,92 91,91 92,92 92,93 93,93 92,94 92,95 91,95 92,94 91,94"/>
<polyline points="88,93 89,93 90,93 90,92 91,92 92,92 93,92 93,93 93,94 92,94 93,95 92,95 92,96 91,95"/>
<polyline points="84,89 85,89 86,90 87,90 86,91 85,91"/>
<polyline points="85,89 86,89 87,89 87,90 87,91 86,91"/>
<polyline points="91,92 91,91"/>
<polyline points="92,92 92,91 91,91"/>
<polyline points="124,113 125,114 124,114 124,115 123,115 124,114 123,114 123,115"/>
<polyline points="73,96 74,96 73,95 73,96"/>
<polyline points="73,91 74,91 75,92 74,92 74,93 75,94 74,94 74,95 74,96"/>
<polyline points="75,88 75,89 74,90 75,90 75,91 74,91 74,90 75,91 75,92 74,93 75,93 75,94 74,95"/>
<polyline points="75,94 75,95 74,95"/>
<polyline points="84,82 84,83 84,84 83,84 84,83 83,83 84,82 85,82 86,81 87,81 88,81 89,82 90,82 91,82 92,82 92,81"/>
<polyline points="85,82 85,83 84,83 85,82 86,82 87,82 87,81 88,80 89,80 90,79 91,79 92,80 93,81 92,81"/>
<polyline points="91,79 92,79 92,78 91,79 91,80 92,80 93,80 93,81"/>
<polyline points="93,80 93,79 92,80 92,79 93,79 93,78 92,78"/>
<polyline points="145,103 145,102"/>
<polyline points="146,101 146,102 145,102"/>
<polyline points="84,107 84,108 84,109 83,109 84,108 83,108 84,107 85,107 86,106 87,106 88,106 89,107 90,107 91,107 92,107 92,106"/>
<polyline points="85,107 85,108 84,108 85,107 86,107 87,107 87,106 88,105 89,105 90,104 91,104 92,105 93,106 92,106"/>
<polyline points="91,104 92,104 92,103 91,104 91,105 92,105 93,105 93,106"/>
<polyline points="93,105 93,104 92,105 92,104 93,104 93,103 92,103"/>
<polyline points="88,105 88,106 89,105 90,106 90,107"/>
<polyline points="88,106 89,106 90,106"/>
<polyline points="90,104 90,105 89,105 89,106"/>
<polyline points="87,118 88,119 88,118 89,117 90,117 91,116 92,117 92,118"/>
<polyline points="89,117 89,118 88,118"/>
<polyline points="88,119 89,119 89,118"/>
<polyline points="91,117 92,117 92,116 91,116 91,117 90,117 90,118 90,119 89,119 90,118 89,118"/>
<polyline points="88,80 88,81 89,80 90,81 90,82 91,83 92,83 93,84 94,84 94,83"/>
<polyline points="96,82 97,83 97,82 96,82 96,83 95,83 95,84 94,84 95,83 94,83"/>
<polyline points="96,83 96,84 95,84 95,85 94,84"/>
<polyline points="95,85 96,85 95,84"/>
<polyline points="94,78 95,78 95,77 94,77 94,78 93,78 94,77 95,78 95,79 96,79 97,79 97,80 98,80 99,80 99,81 98,81 98,82 97,82"/>
<polyline points="95,78 96,78 95,79"/>
<polyline points="97,83 98,83 98,82 99,82 98,81"/>
<polyline points="97,79 98,79 97,80"/>
<polyline points="91,82 91,83"/>
<polyline points="93,90 93,91 92,91 93,90 94,90 94,91"/>
<polyline points="90,107 91,108 92,108 93,109 94,109 94,108"/>
<polyline points="96,107 97,108 97,107 96,107 96,108 95,108 95,109 94,109 95,108 94,108"/>
<polyline points="96,108 96,109 95,109 95,110 94,109"/>
<polyline points="95,110 96,110 95,109"/>
<polyline points="94,103 95,103 95,102 94,102 94,103 93,103 94,102 95,103 95,104 96,104 97,104 97,105 98,105 99,105 99,106 98,106 98,107 97,107"/>
<polyline points="95,103 96,103 95,104"/>
<polyline points="97,108 98,108 98,107 99,107 98,106"/>
<polyline points="97,104 98,104 97,105"/>
<polyline points="91,107 91,108"/>
<polyline points="93,115 93,116 92,116 93,115 94,115 94,116"/>
<polyline points="67,103 67,104 67,105 68,104"/>
<polyline points="98,105 98,104 99,103 98,103 98,104 99,104 100,105 99,106 99,107"/>
<polyline points="96,101 96,102 95,102 96,101 97,101 98,102 99,102 100,103 99,104 100,104 100,105 99,105 99,104 99,103"/>
<polyline points="98,101 98,102 99,101 99,100 98,100 98,101 97,101 98,100 99,101 99,102 100,102 100,103 99,103"/>
<polyline points="98,80 98,79 99,78 98,78 98,79 99,79 99,80"/>
<polyline points="96,76 96,77 95,77 96,76 97,76 98,77 99,77 100,78 99,79 99,78"/>
<polyline points="98,76 98,77 99,76 99,75 98,75 98,76 97,76 98,75 99,76 99,77 100,77 100,78 99,78"/>
<polyline points="94,122 95,121 95,120"/>
<polyline points="88,81 89,81 89,80"/>
<polyline points="90,79 90,80 89,80"/>
<polyline points="89,82 89,81"/>
<polyline points="90,80 90,81 89,81"/>
<polyline points="99,76 100,76 99,75 100,75 100,74 101,74 102,73 103,73 104,72 105,72 106,71 107,71 108,70 109,70 110,69 111,69 112,68 113,68 114,67 115,67 116,66 117,66 118,65 119,65 120,64 121,64 122,63 123,63 124,62 125,62 126,63 127,63 128,64 129,64 130,65 131,65 132,65 132,64 133,65 134,66 135,67 136,68 137,68 138,68 139,67 140,67 141,66 142,67 142,68"/>
<polyline points="119,65 120,66 119,66 119,65 120,65 121,64 122,64 123,64 123,63 124,63 125,62 126,61 127,62 127,63 128,63 129,63 130,63 131,64 131,65 132,66 133,66 133,65 133,64 132,64"/>
<polyline points="134,63 135,64 135,63 134,63 134,64 134,65 133,65 134,64 133,64"/>
<polyline points="124,62 124,63 125,63 125,62 126,62 126,61 127,61 128,60 129,60 130,59 131,59 132,59 132,60 133,59 134,60 134,61 135,61 136,61 136,62 136,63 135,63"/>
<polyline points="126,62 126,63 127,62 127,61 128,61 129,61 129,60 130,60 130,59 131,60 131,59 132,58 133,58 133,59 133,60 132,60"/>
<polyline points="127,62 128,62 127,61"/>
<polyline points="133,60 134,60 135,60 134,61"/>
<polyline points="127,63 128,62 128,63"/>
<polyline points="134,65 134,66 133,66 134,67 135,67 136,67 137,67 137,68 138,69 138,68 139,68 140,68 140,67 141,67 141,66"/>
<polyline points="141,67 142,67 142,66 141,66"/>
<polyline points="138,69 139,69 138,68"/>
<polyline points="139,67 139,68"/>
<polyline points="99,77 100,76 100,75 101,75 101,74 102,74 103,73 104,74 105,74 105,73 105,72 106,72 107,71 108,71 108,70 109,71 109,70 110,70 110,71 111,70 112,70 111,69 112,69 112,68 113,69 113,68 114,68 115,68 115,67 116,67 116,66 117,67 117,66"/>
<polyline points="118,65 118,66 117,66"/>
<polyline points="111,70 111,71 110,71"/>
<polyline points="113,69 114,69 113,68"/>
<polyline points="105,72 106,73 105,73"/>
<polyline points="133,59 134,59 134,58 134,57 133,58 134,58 133,59"/>
<polyline points="135,57 136,57 136,56 135,57 135,58 134,58 135,57 134,57"/>
<polyline points="136,57 137,57 137,56 136,56"/>
<polyline points="101,75 102,76 102,75 101,75"/>
<polyline points="114,67 114,68 114,69 115,68"/>
<polyline points="102,73 102,74 103,74 103,73"/>
<polyline points="104,72 104,73 103,73"/>
<polyline points="112,69 112,70"/>
<polyline points="139,68 139,69 140,68"/>
<polyline points="140,68 140,69 139,69"/>
<polyline points="140,69 140,70 139,69"/>
<polyline points="94,115 95,115 95,114 94,115 95,116 96,116 96,117"/>
<polyline points="94,116 95,116 95,115 96,114 95,114"/>
<polyline points="96,114 97,114 97,113 96,114 96,115 95,115"/>
<polyline points="97,114 98,114 98,113 97,113"/>
<polyline points="98,114 99,114 98,115 98,114"/>
<polyline points="96,109 96,110 97,111 98,111 99,112 98,113 99,113 100,114 99,114 99,115 98,115"/>
<polyline points="96,110 97,110 98,110 98,111"/>
<polyline points="98,108 99,108 99,109 98,109 98,110"/>
<polyline points="98,110 99,110 98,109"/>
<polyline points="100,105 100,106 99,106 100,107 99,108 100,108 99,109 99,110"/>
<polyline points="99,107 100,107 100,108"/>
<polyline points="91,108 92,107 92,108"/>
<polyline points="95,121 96,121 95,120 96,120 97,120 97,119"/>
<polyline points="96,120 96,121"/>
<polyline points="86,86 87,86 86,87"/>
<polyline points="85,86 85,85 86,85 87,85 87,86"/>
<polyline points="86,85 86,84 85,85"/>
<polyline points="85,83 86,83 87,84 86,84"/>
<polyline points="86,83 87,83 87,84"/>
<polyline points="91,83 92,82 92,83"/>
<polyline points="96,84 96,85 97,85 98,85 98,84"/>
<polyline points="96,85 97,86 98,86 98,85"/>
<polyline points="98,83 99,83 99,84 98,84 99,85 98,85"/>
<polyline points="100,78 100,79 99,79 100,80 99,81 100,81 100,82 99,82 99,81 100,82 99,83 100,83 99,84 99,85"/>
<polyline points="100,82 100,83"/>
<polyline points="95,89 95,90 94,90 95,89 96,89 97,89 98,89 98,90"/>
<polyline points="94,91 95,91 94,90"/>
<polyline points="95,90 96,90 96,89 95,90 95,91"/>
<polyline points="97,89 97,88 96,89"/>
<polyline points="100,83 100,84 99,84 100,85 99,86 100,87 99,88 99,87 99,86 98,86 99,87 98,88 99,88 100,89 99,89 99,90 98,90 99,89 98,89 98,88 97,88"/>
<polyline points="99,85 100,85 100,86 99,86"/>
<polyline points="100,86 100,87 99,87"/>
<polyline points="100,87 100,88 99,88"/>
<polyline points="62,94 62,95"/>
<polyline points="92,96 93,96 94,96 95,96 95,95"/>
<polyline points="93,94 93,95 93,96"/>
<polyline points="93,96 94,97 95,96 96,96 95,95 96,95 97,95 97,94 98,95 98,96"/>
<polyline points="97,95 98,95 98,94 97,94"/>
<polyline points="95,91 96,91 96,92 97,92 98,92 98,93 99,93 99,94 98,94"/>
<polyline points="97,92 97,91 96,92"/>
<polyline points="98,93 99,92 98,92 98,91 97,91"/>
<polyline points="100,88 100,89 99,90 99,91 98,91"/>
<polyline points="100,89 100,90 99,90 100,91 99,91"/>
<polyline points="100,90 100,91 100,92 99,93 99,92 100,92 99,91"/>
<polyline points="100,92 100,93 99,93 100,94 99,94 99,95 98,95"/>
<polyline points="98,96 99,96 98,95"/>
<polyline points="100,93 100,94 99,95 99,96"/>
<polyline points="97,120 98,120 98,119 97,119 98,120 98,121"/>
<polyline points="97,117 97,116 96,117 97,117 98,117 98,118 99,118 99,119 98,119"/>
<polyline points="98,118 99,117 98,117 98,116 97,116"/>
<polyline points="98,111 99,111 99,112 99,113 100,113 100,114 99,115 99,116 98,116"/>
<polyline points="100,114 100,115 99,115 100,116 99,116"/>
<polyline points="100,115 100,116 100,117 99,118 99,117 100,117 99,116"/>
<polyline points="98,121 99,121 98,120 99,120 99,119"/>
<polyline points="100,117 100,118 99,118 100,119 99,119"/>
<polyline points="109,129 110,129 110,128 111,129 112,129 111,130 112,130 112,131 113,130 114,130 115,131 115,132"/>
<polyline points="111,129 111,128 110,128"/>
<polyline points="108,127 109,127 109,126 108,127 108,126 109,126 110,126 110,125 111,125 111,126 112,127 112,128 111,128"/>
<polyline points="110,126 110,127 111,127 112,127"/>
<polyline points="102,74 103,75 102,75 103,76 104,77 105,77 106,77 107,77 108,77 108,76"/>
<polyline points="110,76 110,77 111,77 111,76 111,75 110,75 110,76 109,76 109,77 108,77 109,76 108,76"/>
<polyline points="102,76 103,76 104,75 105,75 106,76 106,77 107,78 108,78 109,78 108,77"/>
<polyline points="106,71 106,72 107,72 108,72 109,73 110,73 110,72 111,72 111,73 112,74 112,75 112,76 111,76 112,75 111,75"/>
<polyline points="111,77 112,77 111,76"/>
<polyline points="112,76 112,77"/>
<polyline points="108,71 109,71 108,72 108,73 109,73"/>
<polyline points="109,71 109,72 108,72"/>
<polyline points="110,73 110,74 111,74 112,74"/>
<polyline points="129,138 129,139"/>
<polyline points="115,68 115,69 114,69"/>
<polyline points="115,69 115,70 114,69"/>
<polyline points="111,74 111,73"/>
<polyline points="106,122 107,122 108,122 108,123"/>
<polyline points="142,103 142,104"/>
<polyline points="103,74 103,75"/>
<polyline points="94,96 94,97"/>
<polyline points="106,72 106,73 105,74 106,75 105,75 105,76 105,77 106,78 107,78 108,79 109,79 110,79 110,78"/>
<polyline points="106,73 106,74 105,74"/>
<polyline points="108,78 108,79"/>
<polyline points="108,79 109,78 109,79"/>
<polyline points="148,113 149,113 149,112 148,113"/>
<polyline points="150,110 150,111 149,111 150,112 149,112"/>
<polyline points="92,121 92,120 93,120"/>
<polyline points="108,121 109,121 108,122 109,123 110,123 110,122"/>
<polyline points="110,123 110,124 111,124 111,123 111,122 110,122"/>
<polyline points="111,121 112,121 112,122 112,123 111,123 112,122 111,122"/>
<polyline points="109,121 109,122 108,122"/>
<polyline points="111,124 112,124 111,123"/>
<polyline points="112,123 112,124"/>
<polyline points="108,123 109,123"/>
<polyline points="112,128 112,129"/>
<polyline points="115,70 116,70 116,69"/>
<polyline points="116,67 117,67 117,68 118,68 117,69 117,70 116,70 117,69 116,69"/>
<polyline points="117,67 118,67 118,68 118,69 117,69 118,70 117,70 117,71 116,70"/>
<polyline points="89,92 89,93"/>
<polyline points="138,55 139,55 138,56 138,55 137,56 138,56 139,57 140,57 141,58 142,58 143,59 144,59 144,58"/>
<polyline points="146,57 147,58 147,57 146,57 146,58 145,58 145,59 144,59 145,58 144,58"/>
<polyline points="146,58 146,59 145,59 145,60 144,59"/>
<polyline points="145,60 146,60 145,59"/>
<polyline points="138,56 139,56 139,55 140,54 141,54 142,53 143,53 144,52 145,53 145,54 146,54 147,54 147,55 148,55 149,55 149,56 148,56 148,57 147,57"/>
<polyline points="141,54 142,55 141,55 141,54 142,54 143,54 143,53 144,53 145,53 146,53 145,54"/>
<polyline points="147,58 148,58 148,57 149,57 148,56"/>
<polyline points="147,54 148,54 147,55"/>
<polyline points="144,53 144,52 145,52 146,52 146,53"/>
<polyline points="145,53 145,52"/>
<polyline points="146,52 146,51 145,52"/>
<polyline points="148,51 148,52 147,51 148,51 148,50 147,51 146,51"/>
<polyline points="148,52 149,52 149,51 149,50 148,50 149,51 148,52"/>
<polyline points="150,51 150,52 149,52 150,51 150,50 149,50 150,51 149,51"/>
<polyline points="148,55 148,54 148,53 149,53 150,53 149,52"/>
<polyline points="149,53 149,54 148,54 149,53"/>
<polyline points="140,54 140,55 139,55 140,56 140,57 141,57 142,57 142,58"/>
<polyline points="150,52 150,53 149,54 150,54 150,55 149,55 149,54 150,55 149,56 149,57"/>
<polyline points="113,130 113,131 114,130 115,129 116,129 116,130"/>
<polyline points="113,131 114,131 114,130"/>
<polyline points="115,129 115,130 114,130"/>
<polyline points="114,132 114,131"/>
<polyline points="115,130 115,131 114,131"/>
<polyline points="111,127 111,126"/>
<polyline points="115,132 116,132 117,132 117,131"/>
<polyline points="116,129 117,129 117,128 116,129 117,130 118,131 117,131"/>
<polyline points="116,130 117,130 117,129 118,129 118,128 117,128"/>
<polyline points="117,130 118,130 118,129 117,130"/>
<polyline points="118,130 118,131"/>
<polyline points="109,79 110,80 111,80 112,81 113,81 114,82 115,82 116,83 117,83 118,84 119,84 119,83"/>
<polyline points="121,82 122,83 122,82 121,82 121,83 120,83 120,84 119,84 120,83 119,83"/>
<polyline points="121,83 121,84 120,84 120,85 119,84"/>
<polyline points="120,85 121,85 120,84"/>
<polyline points="111,79 111,78 110,78 111,79 112,79 111,80 112,80 112,81 113,80 114,80 115,79 116,79 117,78 118,78 119,77 120,78 120,79 121,79 122,79 122,80 123,80 124,80 124,81 123,81 123,82 122,82"/>
<polyline points="112,77 112,78 111,78"/>
<polyline points="122,83 123,83 123,82 124,82 123,81"/>
<polyline points="122,79 123,79 122,80"/>
<polyline points="116,79 117,80 116,80 116,79 117,79 118,79 118,78 119,78 120,78 121,78 120,79"/>
<polyline points="117,78 117,79"/>
<polyline points="119,78 119,77"/>
<polyline points="120,78 120,77 119,77"/>
<polyline points="113,80 113,81 114,80 115,81 115,82"/>
<polyline points="113,81 114,81 114,80"/>
<polyline points="115,79 115,80 114,80"/>
<polyline points="114,82 114,81"/>
<polyline points="115,80 115,81 114,81"/>
<polyline points="115,82 116,82 116,83"/>
<polyline points="117,79 117,80 118,79"/>
<polyline points="118,79 118,80 117,80"/>
<polyline points="116,82 117,82 117,81 118,81 117,80"/>
<polyline points="118,80 118,81"/>
<polyline points="138,130 138,131 139,130 140,131 140,132 141,132 141,133"/>
<polyline points="116,83 117,82 117,83"/>
<polyline points="138,131 139,131 140,131"/>
<polyline points="140,129 140,130 139,130 139,131"/>
<polyline points="117,71 118,71 119,71 120,71 120,70"/>
<polyline points="118,69 118,70 118,71"/>
<polyline points="66,108 67,107 67,106"/>
<polyline points="68,104 68,105 67,105 68,106 67,106"/>
<polyline points="68,105 68,106"/>
<polyline points="140,143 140,144 139,144 140,143"/>
<polyline points="120,116 121,116 121,117"/>
<polyline points="118,71 119,72 120,71 121,71 120,70 121,70 122,70 122,69"/>
<polyline points="119,71 119,72"/>
<polyline points="121,70 121,71"/>
<polyline points="142,53 142,54"/>
<polyline points="120,64 120,65 120,66 121,66 121,67"/>
<polyline points="119,128 120,128 120,127 119,127 119,128 118,128 119,127 120,128 120,129"/>
<polyline points="120,128 121,128 120,129 121,129 122,129 122,130"/>
<polyline points="121,127 121,126 120,127 121,127 121,128"/>
<polyline points="123,126 123,127 122,126 123,126 123,125 122,126 121,126"/>
<polyline points="123,127 124,127 124,126 124,125 123,125 124,126 123,127"/>
<polyline points="116,120 117,120 117,119 116,120 117,121 118,121 119,122 120,122 121,123 122,123 123,124 124,124 125,125 124,125 125,126 124,126"/>
<polyline points="117,121 117,120"/>
<polyline points="118,117 118,118 118,119 117,119 118,120 117,120"/>
<polyline points="74,107 75,107 75,108"/>
<polyline points="123,123 123,122 122,123 123,123 123,124"/>
<polyline points="118,119 118,120 118,121"/>
<polyline points="123,124 124,123 124,122 123,122 124,123 124,124 125,124 125,125"/>
<polyline points="118,121 119,121 120,121 120,120 121,120 122,120 122,119 123,120 124,120 125,121 124,122"/>
<polyline points="119,121 119,122 120,121 121,121 120,120"/>
<polyline points="122,120 123,120 123,119 122,119"/>
<polyline points="122,117 122,116 121,117 122,117 123,117 123,118 124,118 124,119 123,119"/>
<polyline points="123,118 124,117 123,117 123,116 122,116"/>
<polyline points="125,113 125,114 124,115 124,116 123,116"/>
<polyline points="125,114 125,115 124,115 125,116 124,116"/>
<polyline points="125,115 125,116 125,117 124,118 124,117 125,117 124,116"/>
<polyline points="125,117 125,118 124,118 125,119 124,120 125,120 125,121 124,121 123,121 123,120 124,121 124,120 124,119"/>
<polyline points="125,118 125,119 124,119"/>
<polyline points="120,121 120,122"/>
<polyline points="121,84 121,85 122,85 123,85 123,84"/>
<polyline points="121,85 122,86 123,86 123,85"/>
<polyline points="123,83 124,83 124,84 123,84 124,85 123,85"/>
<polyline points="123,80 123,79 124,78 123,78 123,79 124,79 125,80 124,81 125,81 125,82 124,82 124,81 125,82 124,83"/>
<polyline points="125,82 125,83 125,84 124,84 125,85 124,85 124,84 125,83 124,83"/>
<polyline points="122,67 122,66 121,67 122,67 123,67 123,68"/>
<polyline points="123,66 124,66 125,67 124,67 124,68 123,68 124,67 123,67 123,66 122,66"/>
<polyline points="123,65 124,64 123,64 123,65 124,65 124,66"/>
<polyline points="124,63 125,64 124,65 124,64"/>
<polyline points="125,63 125,64 124,64"/>
<polyline points="122,129 123,129 123,128"/>
<polyline points="125,125 125,126 124,127 125,128 124,128 124,129 123,129 123,130 122,130 123,129 124,128 123,128"/>
<polyline points="125,126 125,127 124,127"/>
<polyline points="120,135 120,134 120,133 121,133 121,132 122,132 123,132 123,131"/>
<polyline points="121,133 121,134 120,134"/>
<polyline points="122,132 122,133 121,132"/>
<polyline points="128,60 128,61"/>
<polyline points="129,63 129,64 130,64 130,65"/>
<polyline points="136,136 137,136 136,137"/>
<polyline points="135,136 135,135 136,135 137,135 137,136"/>
<polyline points="136,135 136,134 135,135"/>
<polyline points="135,133 136,133 137,134 136,134"/>
<polyline points="136,133 137,133 137,134"/>
<polyline points="100,118 100,119 99,120 99,121"/>
<polyline points="100,119 100,120 99,120 100,121 99,122 100,123 100,124"/>
<polyline points="99,121 100,121 100,122 99,122"/>
<polyline points="146,134 146,135 147,136 148,136 149,137 148,138 149,138 150,139 149,139 149,140 150,141 150,142 149,143 150,143 150,144 149,145 149,146"/>
<polyline points="146,135 147,135 148,135 148,136"/>
<polyline points="148,133 149,133 149,134 148,134 148,135"/>
<polyline points="148,135 149,135 148,134"/>
<polyline points="150,130 150,131 149,131 150,132 149,133 150,133 149,134 149,135"/>
<polyline points="149,132 150,132 150,133"/>
<polyline points="125,84 125,85 124,86 124,87 123,86 124,86 125,87 126,86 127,86 128,85 129,85 130,84 131,84 132,84 132,85 133,84 134,85 134,86"/>
<polyline points="125,85 125,86 124,86"/>
<polyline points="124,87 125,87 126,87 126,86 127,87 127,86 128,86 129,86 129,85 130,85 130,84 131,85 131,84 132,83 133,83 133,84 133,85 132,85"/>
<polyline points="125,86 125,87 126,88 127,87 128,87 127,86"/>
<polyline points="133,84 134,84 134,83 134,82 133,83 134,83 133,84"/>
<polyline points="135,82 136,82 136,81 135,82 135,83 134,83 135,82 134,82"/>
<polyline points="136,82 137,82 137,81 136,81"/>
<polyline points="126,87 126,88 127,88 128,89 129,89 130,90 131,90 132,90 132,89 133,89 134,89 134,88"/>
<polyline points="133,89 133,90 132,89"/>
<polyline points="127,87 127,88 128,88 129,88 129,89"/>
<polyline points="127,88 128,87 128,88"/>
<polyline points="136,111 137,111 136,112"/>
<polyline points="135,111 135,110 136,110 137,110 137,111"/>
<polyline points="136,110 136,109 135,110"/>
<polyline points="135,108 136,108 137,109 136,109"/>
<polyline points="136,108 137,108 137,109"/>
<polyline points="127,113 128,112 128,113"/>
<polyline points="146,102 146,103"/>
<polyline points="128,135 128,136"/>
<polyline points="142,54 142,55 143,54"/>
<polyline points="143,54 143,55 142,55"/>
<polyline points="141,57 141,58 142,57 142,56 143,56 142,55"/>
<polyline points="129,88 130,88 131,89 131,90"/>
<polyline points="96,95 96,96"/>
<polyline points="142,104 142,105 143,104"/>
<polyline points="143,104 143,105 142,105"/>
<polyline points="140,107 141,107 142,107 142,106 143,106 142,105"/>
<polyline points="143,105 143,106"/>
<polyline points="145,128 145,127 146,127 146,128"/>
<polyline points="122,70 123,70 123,69 122,69 123,70 123,71"/>
<polyline points="125,64 125,65 124,65 125,66 125,67 124,68 124,69 123,69"/>
<polyline points="124,66 125,66"/>
<polyline points="123,71 124,71 123,70 124,70 124,69"/>
<polyline points="125,67 125,68 124,68 125,69 124,69"/>
<polyline points="125,68 125,69 124,70 124,71"/>
<polyline points="138,80 139,80 138,81 138,80 137,81 138,81 139,82 140,82 141,82 142,82 142,81"/>
<polyline points="138,81 139,81 139,80 140,79 141,79 142,80 143,81 142,81"/>
<polyline points="141,79 142,79 142,78 141,79 141,80 142,80 143,80 143,81"/>
<polyline points="143,80 143,79 142,80 142,79 143,79 143,78 142,78"/>
<polyline points="131,90 132,91 133,91 133,90 134,91 135,92 136,93 137,93 138,93 139,94 140,95 141,95 141,94"/>
<polyline points="134,90 134,89 133,90 134,90 134,91 133,91 134,92 135,92 136,92 137,92 137,93 138,94 138,93 139,92 140,92 141,91 142,92 142,93 143,93 142,94 142,95 141,95 142,94 141,94"/>
<polyline points="138,93 139,93 140,93 140,92 141,92 142,92 143,92 143,93 143,94 142,94 143,95 142,95 142,96 141,95"/>
<polyline points="135,89 136,90 136,89 135,89 135,88 134,88 135,89 134,89"/>
<polyline points="133,85 134,85 135,85 134,86 135,86 136,86 136,87 137,88 137,89 136,89"/>
<polyline points="136,86 137,86 136,87 136,88 135,88"/>
<polyline points="135,86 135,85 136,85 137,85 137,86 137,87 136,87"/>
<polyline points="136,85 136,84 135,85"/>
<polyline points="135,83 136,83 137,84 136,84"/>
<polyline points="136,83 137,83 137,84"/>
<polyline points="141,92 141,91"/>
<polyline points="142,92 142,91 141,91"/>
<polyline points="138,94 139,94 140,93"/>
<polyline points="139,92 139,93 139,94"/>
<polyline points="134,92 134,91"/>
<polyline points="135,92 135,91 134,91"/>
<polyline points="136,90 137,90 136,91 135,91"/>
<polyline points="137,89 137,90 137,91 136,91"/>
<polyline points="121,76 121,77 120,77 121,76 122,76 123,77 124,77 125,78 124,79 125,79 125,80 124,80 124,79 124,78"/>
<polyline points="123,76 123,77 124,76 124,75 123,75 123,76 122,76 123,75 124,76 124,77 125,77 125,78 124,78"/>
<polyline points="140,79 140,80 139,80 140,81 140,82"/>
<polyline points="139,82 139,81 140,81"/>
<polyline points="106,74 106,75"/>
<polyline points="79,114 80,114 80,115"/>
<polyline points="129,89 130,89 130,90"/>
<polyline points="143,65 143,66 142,66 143,65 144,65 144,66"/>
<polyline points="140,82 141,83 142,83 143,84 144,84 144,83"/>
<polyline points="146,82 147,83 147,82 146,82 146,83 145,83 145,84 144,84 145,83 144,83"/>
<polyline points="146,83 146,84 145,84 145,85 144,84"/>
<polyline points="145,85 146,85 145,84"/>
<polyline points="144,78 145,78 145,77 144,77 144,78 143,78 144,77 145,78 145,79 146,79 147,79 147,80 148,80 149,80 149,81 148,81 148,82 147,82"/>
<polyline points="145,78 146,78 145,79"/>
<polyline points="147,83 148,83 148,82 149,82 148,81"/>
<polyline points="147,79 148,79 147,80"/>
<polyline points="141,82 141,83"/>
<polyline points="143,90 143,91 142,91 143,90 144,90 144,91"/>
<polyline points="116,132 116,133 117,132 117,133"/>
<polyline points="148,80 148,79 149,78 148,78 148,79 149,79 150,80 149,81 149,82"/>
<polyline points="146,76 146,77 145,77 146,76 147,76 148,77 149,77 150,78 149,79 150,79 150,80 149,80 149,79 149,78"/>
<polyline points="148,76 148,77 149,76 149,75 148,75 148,76 147,76 148,75 149,76 149,77 150,77 150,78 149,78"/>
<polyline points="56,103 57,103 58,103 58,104"/>
<polyline points="56,97 57,97 58,97 59,98 60,98 60,99"/>
<polyline points="58,96 59,96 58,97 58,98 59,98"/>
<polyline points="59,96 59,97 58,97"/>
<polyline points="60,98 60,97"/>
<polyline points="60,99 61,99 61,98 61,97 60,97"/>
<polyline points="61,96 62,96 62,97 62,98 61,98 62,97 61,97"/>
<polyline points="61,99 62,99 61,98"/>
<polyline points="62,98 62,99"/>
<polyline points="129,139 130,139 130,140"/>
<polyline points="128,110 128,111"/>
<polyline points="140,70 141,70 142,71 143,71 144,71 145,71 145,70"/>
<polyline points="141,70 142,70 142,69 141,70 141,69 142,69 143,70 143,71"/>
<polyline points="142,71 142,70"/>
<polyline points="142,68 143,68 142,69 143,69 143,70 142,70"/>
<polyline points="143,71 144,72 145,71 146,71 145,70 146,70 147,70 147,69 148,70 148,71"/>
<polyline points="147,70 148,70 148,69 147,69"/>
<polyline points="144,65 145,65 145,64 144,65 145,66 146,66 146,67 147,67 148,67 148,68 149,68 149,69 148,69"/>
<polyline points="144,66 145,66 145,65 146,64 145,64"/>
<polyline points="146,64 147,64 147,63 146,64 146,65 145,65"/>
<polyline points="147,64 148,64 148,63 147,63"/>
<polyline points="147,67 147,66 146,67"/>
<polyline points="148,68 149,67 148,67 148,66 147,66"/>
<polyline points="148,65 149,64 148,64 148,65 149,65 149,66 148,66"/>
<polyline points="146,59 146,60 147,61 148,61 149,62 148,63 149,63 150,64 149,64 149,65 150,66 149,66"/>
<polyline points="146,60 147,60 148,60 148,61 149,61 149,62 149,63 150,63 150,64 149,65 150,65 150,66 150,67 149,68 149,67 150,67 149,66"/>
<polyline points="148,71 149,71 148,70 149,70 149,69"/>
<polyline points="150,67 150,68 149,68 150,69 149,69"/>
<polyline points="141,132 142,132 142,133"/>
<polyline points="140,120 141,120 142,121 143,121 144,121 145,121 145,120"/>
<polyline points="141,120 142,120 142,119 141,120 141,119 142,119 143,120 143,121"/>
<polyline points="142,121 142,120"/>
<polyline points="143,115 143,116 142,116 142,117 142,118 143,118 142,119 143,119 143,120 142,120"/>
<polyline points="150,68 150,69 149,70 149,71"/>
<polyline points="122,133 123,133 124,133 124,134 124,135"/>
<polyline points="123,133 123,132 124,132 123,131 124,131 125,132 124,133 125,133 124,134"/>
<polyline points="123,130 124,130 124,131 124,132 125,132 125,133 125,134 124,134"/>
<polyline points="144,90 145,90 145,89 144,90 145,91 146,91 146,92"/>
<polyline points="144,91 145,91 145,90 146,89 145,89"/>
<polyline points="146,89 147,89 147,88 146,89 146,90 145,90"/>
<polyline points="147,89 148,89 148,88 147,88"/>
<polyline points="148,89 149,89 148,90 148,89"/>
<polyline points="146,84 146,85 147,86 148,86 149,87 148,88 149,88 150,89 149,89 149,90 148,90"/>
<polyline points="146,85 147,85 148,85 148,86"/>
<polyline points="148,83 149,83 149,84 148,84 148,85"/>
<polyline points="148,85 149,85 148,84"/>
<polyline points="150,80 150,81 149,81 150,82 149,83 150,83 149,84 149,85"/>
<polyline points="149,82 150,82 150,83"/>
<polyline points="96,102 96,103"/>
<polyline points="142,67 143,67 143,68"/>
<polyline points="143,94 143,95"/>
<polyline points="139,57 139,56"/>
<polyline points="140,55 140,56 139,56"/>
<polyline points="125,127 125,128 124,129 124,130"/>
<polyline points="141,83 142,82 142,83"/>
<polyline points="144,146 144,147"/>
<polyline points="143,121 144,122 145,121 146,121 145,120 146,120 147,120 147,119"/>
<polyline points="146,120 146,121"/>
<polyline points="144,121 144,122"/>
<polyline points="146,70 146,71"/>
<polyline points="149,141 150,141"/>
<polyline points="144,71 144,72"/>
<polyline points="143,55 143,56"/>
<polyline points="148,58 149,58 149,59 148,59 149,60 148,60 148,59"/>
<polyline points="150,55 150,56 149,56 150,57 149,58"/>
<polyline points="149,57 150,57 150,58 150,59 149,59 150,60 149,60 149,59 150,58 149,58"/>
<polyline points="142,96 143,96 144,96 145,96 145,95 146,95 147,95 147,94"/>
<polyline points="143,95 143,96 144,97 145,96 146,96 145,95"/>
<polyline points="136,61 137,61 136,62"/>
<polyline points="135,61 135,60 136,60 137,60 137,61"/>
<polyline points="136,60 136,59 135,60"/>
<polyline points="135,58 136,58 137,59 136,59"/>
<polyline points="136,58 137,58 137,59"/>
<polyline points="121,77 121,78"/>
<polyline points="142,129 142,130 143,129"/>
<polyline points="143,129 143,130 142,130"/>
<polyline points="141,133 142,132 142,131 143,131 142,130"/>
<polyline points="143,130 143,131"/>
<polyline points="141,107 141,108 142,107 142,108"/>
<polyline points="61,102 61,101"/>
<polyline points="147,92 147,91 146,92 147,92 148,92 148,93"/>
<polyline points="148,91 149,91 150,92 149,92 149,93 148,93 149,92 148,92 148,91 147,91"/>
<polyline points="148,86 149,86 149,87 149,88 150,88 150,89 149,90 149,91"/>
<polyline points="148,136 149,136 149,137 149,138 150,138 150,139 149,140"/>
<polyline points="150,139 150,140 149,140"/>
<polyline points="106,124 106,125"/>
<polyline points="141,142 142,142 142,141"/>
<polyline points="143,140 143,141 142,141"/>
<polyline points="67,92 68,92 68,93"/>
<polyline points="150,111 150,112 149,113 150,114 149,115 149,114"/>
<polyline points="149,113 150,113 150,114 149,114"/>
<polyline points="147,120 148,120 148,119 147,119 148,120 148,121"/>
<polyline points="150,114 150,115 149,115 150,116 150,117 149,118 149,119 148,119"/>
<polyline points="148,121 149,121 148,120 149,120 149,119"/>
<polyline points="150,117 150,118 149,118 150,119 149,119"/>
<polyline points="149,116 150,116"/>
<polyline points="150,118 150,119 149,120 149,121"/>
<polyline points="142,142 143,142 143,143"/>
<polyline points="88,94 89,94 90,93"/>
<polyline points="89,93 89,94"/>
<polyline points="134,67 134,66"/>
<polyline points="135,67 135,66 134,66"/>
<polyline points="134,64 135,64 136,65 137,65 136,66 135,66"/>
<polyline points="135,64 136,64 137,64 137,65 137,66 136,66"/>
<polyline points="86,111 87,111 86,112"/>
<polyline points="85,111 85,110 86,110 87,110 87,111"/>
<polyline points="86,110 86,109 85,110"/>
<polyline points="85,108 86,108 87,109 86,109"/>
<polyline points="86,108 87,108 87,109"/>
<polyline points="96,77 96,78"/>
<polyline points="128,85 128,86"/>
<polyline points="121,120 121,121"/>
<polyline points="142,117 143,117 143,118"/>
<polyline points="56,99 56,100"/>
<polyline points="112,78 112,79"/>
<polyline points="147,95 148,95 148,94 147,94 148,95 148,96"/>
<polyline points="150,89 150,90 149,90 150,91 150,92 149,93 149,94 148,94"/>
<polyline points="148,96 149,96 148,95 149,95 149,94"/>
<polyline points="150,92 150,93 149,93 150,94 149,94"/>
<polyline points="149,91 150,91"/>
<polyline points="150,93 150,94 149,95 149,96"/>
<polyline points="136,88 137,88"/>
<polyline points="146,77 146,78"/>
<polyline points="125,128 125,129 124,129 125,130 124,131"/>
<polyline points="124,130 125,130 125,131 124,131"/>
<polyline points="144,96 144,97"/>
<polyline points="103,75 103,76"/>
<polyline points="146,95 146,96"/>
<polyline points="144,97 145,97 146,98 147,98 148,97"/>
<polyline points="145,96 145,97"/>
<polyline points="148,97 149,98 149,97 148,97 148,98 147,98"/>
<polyline points="148,98 148,99 147,98"/>
<polyline points="148,99 149,99 149,98 148,99"/>
<polyline points="150,94 150,95 149,95 150,96 149,97 150,98 149,98"/>
<polyline points="149,96 150,96 150,97 149,97"/>
<polyline points="144,147 145,147 146,148 147,148"/>
<polyline points="145,146 145,147"/>
<polyline points="92,118 93,118"/>
<polyline points="137,61 137,62 136,62 137,63"/>
<polyline points="150,97 150,98 149,99 150,100"/>
<polyline points="150,98 150,99 149,99"/>
<polyline points="94,97 95,97"/>
<polyline points="144,122 145,122 146,123 147,123 148,124"/>
<polyline points="145,121 145,122"/>
<polyline points="147,123 148,123 148,122 147,123"/>
<polyline points="137,111 137,112 136,112 137,113"/>
<polyline points="119,72 120,72 121,73 122,73"/>
<polyline points="120,71 120,72"/>
<polyline points="122,73 123,73 123,72 122,73 123,74"/>
<polyline points="144,72 145,72 146,73 147,73 148,72"/>
<polyline points="145,71 145,72"/>
<polyline points="148,72 149,73 149,72 148,72 148,73 147,73"/>
<polyline points="148,73 148,74 147,73"/>
<polyline points="150,69 150,70 149,70 150,71 149,72"/>
<polyline points="148,74 149,74 149,73 148,74"/>
<polyline points="149,71 150,71 150,72 149,72 150,73 149,73"/>
<polyline points="95,96 95,97 96,98 97,98"/>
<polyline points="111,72 112,72"/>
<polyline points="87,86 87,87 86,87 87,88"/>
<polyline points="98,97 99,98 99,97 98,97 98,98 97,98 98,97"/>
<polyline points="98,98 98,99 97,98"/>
<polyline points="100,94 100,95 99,95 100,96 99,97"/>
<polyline points="98,99 99,99 99,98 98,99"/>
<polyline points="99,96 100,96 100,97 99,97 100,98 99,98"/>
<polyline points="100,97 100,98 99,99 100,100"/>
<polyline points="100,98 100,99 99,99"/>
<polyline points="147,148 148,148 148,147 147,148 148,149"/>
<polyline points="150,72 150,73 149,74 150,75"/>
<polyline points="150,73 150,74 149,74"/>
<polyline points="111,125 112,125"/>
<polyline points="61,100 62,100"/>
<polyline points="123,73 123,74 124,74 125,75"/>
<polyline points="87,111 87,112 86,112 87,113"/>
<polyline points="148,123 148,124 149,124 150,125"/>
<polyline points="137,136 137,137 136,137 137,138"/>
<polyline points="70,97 71,97 71,96"/>
<polyline points="137,117 137,116"/>
<polyline points="71,91 71,90"/>
<polyline points="132,58 132,59"/>
<polyline points="129,136 130,136 131,135 130,135"/>
<polyline points="96,121 96,122 95,122"/>
<polyline points="129,61 130,61 131,60 130,60"/>
<polyline points="145,115 146,115 146,116"/>
<polyline points="128,61 128,62"/>
<polyline points="136,138 137,138 137,139"/>
<polyline points="136,68 136,67"/>
<polyline points="67,107 68,107 68,108 67,108"/>
<polyline points="137,66 137,67"/>
<polyline points="58,103 59,103 59,102"/>
<polyline points="132,116 132,115"/>
<polyline points="107,72 107,71"/>
<polyline points="128,113 128,114"/>
<polyline points="100,77 100,76"/>
<polyline points="130,114 131,114 130,115"/>
<polyline points="71,103 71,104"/>
<polyline points="136,143 136,142"/>
<polyline points="104,73 104,74"/>
<polyline points="118,67 118,66"/>
<polyline points="112,70 112,71 111,71"/>
<polyline points="134,60 134,59"/>
<polyline points="121,134 121,135"/>
<polyline points="122,136 122,135"/>
<polyline points="54,98 54,99"/>
<polyline points="137,58 137,57"/>
<polyline points="96,122 96,123"/>
<polyline points="104,75 104,76 103,76"/>
<polyline points="110,69 110,70"/>
<polyline points="84,110 84,109"/>
<polyline points="120,115 121,115 121,114"/>
<polyline points="149,135 150,135 149,134 150,134 150,133"/>
<polyline points="96,115 96,116"/>
<polyline points="150,115 150,116"/>
<polyline points="62,99 62,100 61,101 62,101 62,102"/>
<polyline points="97,111 97,110"/>
<polyline points="100,107 100,106"/>
<polyline points="93,106 93,107 92,107"/>
<polyline points="132,65 132,66"/>
<polyline points="128,64 128,63"/>
<polyline points="86,113 87,113 87,114"/>
<polyline points="87,85 87,84"/>
<polyline points="87,82 87,83"/>
<polyline points="97,86 97,85"/>
<polyline points="142,133 143,133 143,134"/>
<polyline points="99,80 100,80 100,81"/>
<polyline points="136,114 136,115"/>
<polyline points="136,113 137,113 137,114"/>
<polyline points="96,91 96,90"/>
<polyline points="125,65 125,66"/>
<polyline points="136,118 136,117"/>
<polyline points="100,85 100,84"/>
<polyline points="136,132 136,131"/>
<polyline points="56,100 56,101"/>
<polyline points="96,96 96,97 95,97"/>
<polyline points="124,135 125,135 125,136"/>
<polyline points="146,128 146,129"/>
<polyline points="137,133 137,132"/>
<polyline points="150,99 150,100 149,100 150,101 149,102"/>
<polyline points="100,103 100,104"/>
<polyline points="86,115 86,114"/>
<polyline points="75,109 75,108"/>
<polyline points="100,108 100,109 99,109 100,110 99,111 100,112 99,113"/>
<polyline points="99,110 100,110 100,111 99,111"/>
<polyline points="82,115 82,116"/>
<polyline points="112,129 112,130"/>
<polyline points="150,140 150,141"/>
<polyline points="149,76 150,76 149,75 150,75 150,74"/>
<polyline points="148,124 149,123 149,122 148,122 149,123 149,124 150,124 150,125 149,125 150,126 149,126"/>
<polyline points="150,119 150,120 149,120 150,121 149,122"/>
<polyline points="104,76 104,77"/>
<polyline points="109,78 109,77"/>
<polyline points="112,124 112,125 111,126"/>
<polyline points="112,125 112,126 111,126"/>
<polyline points="106,78 106,77"/>
<polyline points="62,105 62,104"/>
<polyline points="96,97 96,98"/>
<polyline points="112,71 112,72 111,73 112,73 112,74"/>
<polyline points="109,73 109,72"/>
<polyline points="87,117 87,116"/>
<polyline points="132,134 132,133"/>
<polyline points="107,121 107,122"/>
<polyline points="105,76 106,76 105,77"/>
<polyline points="74,96 75,96 75,97 74,97"/>
<polyline points="74,98 75,98 74,97"/>
<polyline points="148,147 149,148 149,147 148,147"/>
<polyline points="150,144 150,145 149,145 150,146 149,147"/>
<polyline points="65,94 65,95"/>
<polyline points="140,144 140,145"/>
<polyline points="110,119 110,120"/>
<polyline points="78,114 78,113"/>
<polyline points="109,122 109,123"/>
<polyline points="128,136 128,137"/>
<polyline points="142,58 143,58 143,59"/>
<polyline points="68,93 68,94"/>
<polyline points="147,141 147,142"/>
<polyline points="150,103 150,104"/>
<polyline points="62,96 62,95"/>
<polyline points="136,139 136,140"/>
<polyline points="146,53 146,54"/>
<polyline points="78,112 77,113"/>
<polyline points="104,124 104,123"/>
<polyline points="137,141 137,142"/>
<polyline points="60,94 60,95"/>
<polyline points="96,104 96,103"/>
<polyline points="57,97 57,96"/>
<polyline points="128,138 128,139"/>
<polyline points="150,54 150,53"/>
<polyline points="117,132 118,132 118,133 117,133"/>
<polyline points="75,104 75,105"/>
<polyline points="118,132 118,131"/>
<polyline points="117,83 118,83 118,84"/>
<polyline points="75,97 75,98 74,99"/>
<polyline points="75,107 75,106"/>
<polyline points="72,110 72,111"/>
<polyline points="75,98 75,99"/>
<polyline points="110,79 110,80"/>
<polyline points="71,109 71,110"/>
<polyline points="107,127 107,128"/>
<polyline points="106,125 106,126"/>
<polyline points="112,80 112,79"/>
<polyline points="142,108 143,108 143,109"/>
<polyline points="103,126 104,126 104,125"/>
<polyline points="92,117 93,117 93,118 92,119 93,119 93,120"/>
<polyline points="100,80 100,79"/>
<polyline points="118,81 118,82 117,82"/>
<polyline points="140,131 140,130"/>
<polyline points="120,72 121,72 121,73"/>
<polyline points="112,120 112,121"/>
<polyline points="68,107 68,106"/>
<polyline points="121,72 121,71"/>
<polyline points="81,86 81,87"/>
<polyline points="120,65 121,65 121,66"/>
<polyline points="72,92 72,91"/>
<polyline points="121,128 121,129"/>
<polyline points="108,128 109,128 108,129"/>
<polyline points="147,138 147,139"/>
<polyline points="120,122 121,122 121,123"/>
<polyline points="145,140 146,140 146,139"/>
<polyline points="125,121 125,122 124,122 125,123 124,123"/>
<polyline points="125,122 125,123 124,124"/>
<polyline points="125,123 125,124"/>
<polyline points="128,112 128,111"/>
<polyline points="121,122 121,121"/>
<polyline points="134,134 134,135"/>
<polyline points="139,106 139,107"/>
<polyline points="150,145 150,146 149,146"/>
<polyline points="80,111 81,112 80,113 80,112 80,111 81,111 81,110"/>
<polyline points="81,111 81,112 80,112"/>
<polyline points="81,112 81,113 80,113"/>
<polyline points="125,80 125,81"/>
<polyline points="86,117 86,118"/>
<polyline points="132,109 132,108"/>
<polyline points="68,92 68,91"/>
<polyline points="147,111 147,110"/>
<polyline points="121,115 121,116"/>
<polyline points="92,83 93,83 93,84"/>
<polyline points="146,146 146,147 145,147"/>
<polyline points="130,65 131,64 130,64"/>
<polyline points="137,134 137,135"/>
<polyline points="137,138 137,137"/>
<polyline points="146,147 146,148"/>
<polyline points="100,125 100,124"/>
<polyline points="100,121 100,120"/>
<polyline points="99,123 100,123 100,122"/>
<polyline points="147,135 147,136"/>
<polyline points="150,143 150,142"/>
<polyline points="150,146 150,147 149,147"/>
<polyline points="148,148 148,149 149,148 150,148 149,147"/>
<polyline points="150,131 150,132"/>
<polyline points="146,109 146,110"/>
<polyline points="128,87 128,86"/>
<polyline points="150,128 150,129"/>
<polyline points="129,86 130,86 131,85 130,85"/>
<polyline points="89,94 90,94 90,95"/>
<polyline points="130,89 131,89 130,90"/>
<polyline points="132,141 132,140"/>
<polyline points="134,85 134,84"/>
<polyline points="137,62 137,63 136,63"/>
<polyline points="110,129 110,130"/>
<polyline points="137,83 137,82"/>
<polyline points="128,88 128,89"/>
<polyline points="132,91 132,90"/>
<polyline points="87,87 87,88 86,88"/>
<polyline points="137,109 137,110"/>
<polyline points="137,113 137,112"/>
<polyline points="132,83 132,84"/>
<polyline points="137,107 137,108"/>
<polyline points="143,56 143,57 142,57"/>
<polyline points="142,107 143,107 143,106"/>
<polyline points="87,92 87,91"/>
<polyline points="146,126 146,127"/>
<polyline points="71,97 71,98"/>
<polyline points="124,71 125,71 124,70 125,70 125,69"/>
<polyline points="140,80 140,81"/>
<polyline points="87,88 87,89"/>
<polyline points="84,85 84,84"/>
<polyline points="136,92 136,93"/>
<polyline points="93,91 93,92"/>
<polyline points="60,104 60,105"/>
<polyline points="137,91 137,92"/>
<polyline points="139,94 140,94 140,95"/>
<polyline points="75,93 75,92"/>
<polyline points="100,99 100,100 99,100"/>
<polyline points="99,101 100,101 99,100"/>
<polyline points="118,133 118,134"/>
<polyline points="86,89 86,90"/>
<polyline points="130,139 131,139 130,140"/>
<polyline points="129,111 130,111 131,110 130,110"/>
<polyline points="137,87 137,88"/>
<polyline points="137,84 137,85"/>
<polyline points="90,94 90,93"/>
<polyline points="100,123 99,124"/>
<polyline points="53,101 54,101 54,100"/>
<polyline points="75,110 75,111"/>
<polyline points="125,78 125,79"/>
<polyline points="123,74 124,73 124,72 123,72 124,73 124,74 125,74 125,75 124,75 125,76 124,76"/>
<polyline points="125,70 125,71 124,72"/>
<polyline points="142,82 143,82 143,83 142,83"/>
<polyline points="80,115 81,114 80,114"/>
<polyline points="87,108 87,107"/>
<polyline points="143,67 143,66"/>
<polyline points="143,83 143,84"/>
<polyline points="86,82 86,81"/>
<polyline points="75,89 75,90"/>
<polyline points="75,96 75,95"/>
<polyline points="72,108 72,107"/>
<polyline points="149,85 150,85 149,84 150,84 150,83"/>
<polyline points="96,78 96,79"/>
<polyline points="146,78 146,79"/>
<polyline points="140,106 140,105"/>
<polyline points="143,92 143,91"/>
<polyline points="150,78 150,79"/>
<polyline points="150,108 150,109"/>
<polyline points="149,77 150,76 150,77"/>
<polyline points="93,81 93,82 92,82"/>
<polyline points="59,97 59,98"/>
<polyline points="146,140 146,141"/>
<polyline points="147,113 147,114"/>
<polyline points="140,94 140,93"/>
<polyline points="143,68 143,69"/>
<polyline points="145,72 146,72 146,71"/>
<polyline points="86,107 86,106"/>
<polyline points="89,106 89,107"/>
<polyline points="107,77 107,78"/>
<polyline points="149,101 150,101 150,102"/>
<polyline points="90,106 90,105"/>
<polyline points="146,66 146,65"/>
<polyline points="90,120 90,119"/>
<polyline points="147,60 147,61"/>
<polyline points="150,65 150,64"/>
<polyline points="150,59 150,60 149,61 150,62 149,62"/>
<polyline points="150,60 150,61 149,61"/>
<polyline points="145,122 146,122 146,123"/>
<polyline points="143,117 143,116"/>
<polyline points="143,118 143,119"/>
<polyline points="125,131 125,132"/>
<polyline points="146,90 146,91"/>
<polyline points="57,103 57,102"/>
<polyline points="59,103 58,104"/>
<polyline points="68,108 68,109"/>
<polyline points="136,107 136,106"/>
<polyline points="147,86 147,85"/>
<polyline points="150,82 150,81"/>
<polyline points="54,101 54,102"/>
<polyline points="150,107 150,106"/>
<polyline points="150,57 150,56"/>
<polyline points="150,61 150,62 149,63"/>
<polyline points="99,102 100,101 100,102"/>
<polyline points="145,97 146,97 146,98"/>
<polyline points="92,108 93,108 93,109"/>
<polyline points="137,60 137,59"/>
<polyline points="142,132 143,132 143,131"/>
<polyline points="139,131 139,132"/>
<polyline points="150,84 150,85 149,86 150,87 149,87"/>
<polyline points="150,85 150,86 149,86"/>
<polyline points="150,134 150,135 149,136 150,137 149,138"/>
<polyline points="150,135 150,136 149,136"/>
<polyline points="122,113 122,114"/>
<polyline points="143,142 143,141"/>
<polyline points="150,113 150,112"/>
<polyline points="150,86 150,87 149,88"/>
<polyline points="146,115 146,114"/>
<polyline points="122,63 122,64"/>
<polyline points="150,120 150,121 149,121"/>
<polyline points="136,64 136,65"/>
<polyline points="137,63 137,64"/>
<polyline points="87,109 87,110"/>
<polyline points="87,113 87,112"/>
<polyline points="146,97 146,96"/>
<polyline points="143,144 143,143"/>
<polyline points="150,91 150,90"/>
<polyline points="150,121 150,122 149,122"/>
<polyline points="149,123 150,123 149,122"/>
<polyline points="125,129 125,130"/>
<polyline points="146,72 146,73"/>
<polyline points="150,95 150,96"/>
<polyline points="124,77 125,76 125,77"/>
<polyline points="150,71 150,70"/>
<polyline points="86,93 86,92"/>
<polyline points="106,76 106,75"/>
<polyline points="121,65 121,64"/>
<polyline points="121,79 121,78"/>
<polyline points="100,96 100,95"/>
<polyline points="146,103 146,104"/>
<polyline points="150,125 150,126 149,127"/>
<polyline points="130,61 131,62 130,63 130,62 130,61 131,61 131,60"/>
<polyline points="130,62 131,62 131,63 130,63"/>
<polyline points="149,137 150,137 150,138"/>
<polyline points="62,100 62,101"/>
<polyline points="143,132 143,133"/>
<polyline points="150,101 150,100"/>
<polyline points="100,111 100,112 99,112"/>
<polyline points="100,110 100,109"/>
<polyline points="150,76 150,75"/>
<polyline points="112,126 112,127"/>
<polyline points="149,124 150,123 150,124"/>
<polyline points="112,73 112,72"/>
<polyline points="104,126 104,127"/>
<polyline points="118,82 118,83"/>
<polyline points="143,57 143,58"/>
<polyline points="93,119 93,118"/>
<polyline points="143,107 143,108"/>
<polyline points="130,136 131,137 130,138 130,137 130,136 131,136 131,135"/>
<polyline points="131,136 131,137 130,137"/>
<polyline points="131,137 131,138 130,138"/>
<polyline points="81,114 81,113"/>
<polyline points="93,82 93,83"/>
<polyline points="148,149 149,149 150,148 150,147"/>
<polyline points="150,148 150,149 149,149 149,148"/>
<polyline points="150,149 150,150 149,149"/>
<polyline points="100,112 100,113"/>
<polyline points="93,116 93,117"/>
<polyline points="125,71 125,72 124,72"/>
<polyline points="124,73 125,73 124,72"/>
<polyline points="131,138 131,139"/>
<polyline points="146,122 146,121"/>
<polyline points="109,127 109,128"/>
<polyline points="124,74 125,73 125,74"/>
<polyline points="100,101 100,100"/>
<polyline points="143,81 143,82"/>
<polyline points="125,76 125,75"/>
<polyline points="150,62 150,63"/>
<polyline points="93,107 93,108"/>
<polyline points="150,87 150,88"/>
<polyline points="150,137 150,136"/>
<polyline points="125,134 125,135"/>
<polyline points="150,123 150,122"/>
<polyline points="150,127 150,126"/>
<polyline points="131,110 131,111 130,111 130,112 130,113 131,113 131,114"/>
<polyline points="130,112 131,112 130,111"/>
<polyline points="131,63 131,64"/>
<polyline points="122,85 122,86"/>
<polyline points="125,119 125,120"/>
<polyline points="131,85 131,86 130,86 130,87 130,88 131,88 131,89"/>
<polyline points="130,87 131,87 130,86"/>
<polyline points="130,113 131,112 131,113"/>
<polyline points="131,62 131,61"/>
<polyline points="131,112 131,111"/>
<polyline points="131,86 131,87 130,88"/>
<polyline points="131,87 131,88"/>
<polyline points="125,73 125,72"/>
</svg>
